<svg width="695" height="392" viewBox="0 0 695 392" fill="none" xmlns="http://www.w3.org/2000/svg">
<path fill-rule="evenodd" clip-rule="evenodd" d="M363.156 346.92C374.619 343.604 383 333.031 383 320.5C383 305.312 370.688 293 355.5 293C340.312 293 328 305.312 328 320.5C328 332.626 335.848 342.919 346.742 346.576C337.231 348.096 328.37 352.576 321.473 359.473C313.556 367.39 308.823 377.895 308.098 389C308.033 389.996 308 390.996 308 392H311C311 380.596 315.53 369.658 323.594 361.594C331.658 353.53 342.596 349 354 349C365.404 349 376.342 353.53 384.406 361.594C392.47 369.658 397 380.596 397 392H400C400 390.996 399.967 389.996 399.902 389C399.177 377.895 394.444 367.39 386.527 359.473C380.091 353.037 371.944 348.705 363.156 346.92ZM380 320.5C380 334.031 369.031 345 355.5 345C341.969 345 331 334.031 331 320.5C331 306.969 341.969 296 355.5 296C369.031 296 380 306.969 380 320.5Z" fill="#4D6BFF"/>
<mask id="path-2-inside-1_0_1" fill="white">
<path d="M84.4276 194.786C84.4276 185.447 80.7176 176.49 74.1137 169.886C67.5098 163.282 58.5531 159.572 49.2138 159.572C39.8745 159.572 30.9178 163.282 24.3139 169.886C17.71 176.49 14 185.447 14 194.786H16.2966C16.2966 186.056 19.7646 177.683 25.9378 171.51C32.111 165.337 40.4836 161.869 49.2138 161.869C57.944 161.869 66.3166 165.337 72.4898 171.51C78.663 177.683 82.131 186.056 82.131 194.786H84.4276Z"/>
</mask>
<path d="M84.4276 194.786C84.4276 185.447 80.7176 176.49 74.1137 169.886C67.5098 163.282 58.5531 159.572 49.2138 159.572C39.8745 159.572 30.9178 163.282 24.3139 169.886C17.71 176.49 14 185.447 14 194.786H16.2966C16.2966 186.056 19.7646 177.683 25.9378 171.51C32.111 165.337 40.4836 161.869 49.2138 161.869C57.944 161.869 66.3166 165.337 72.4898 171.51C78.663 177.683 82.131 186.056 82.131 194.786H84.4276Z" stroke="#4D6BFF" stroke-width="6" mask="url(#path-2-inside-1_0_1)"/>
<path d="M69.914 140.052C69.914 150.85 61.1604 159.603 50.3623 159.603C39.5642 159.603 30.8105 150.85 30.8105 140.052C30.8105 129.254 39.5642 120.5 50.3623 120.5C61.1604 120.5 69.914 129.254 69.914 140.052Z" stroke="#4D6BFF" stroke-width="3"/>
<g filter="url(#filter0_d_0_1)">
<mask id="path-4-inside-2_0_1" fill="white">
<path d="M120.428 207.786C120.428 198.447 116.718 189.49 110.114 182.886C103.51 176.282 94.5531 172.572 85.2138 172.572C75.8745 172.572 66.9178 176.282 60.3139 182.886C53.71 189.49 50 198.447 50 207.786H52.2966C52.2966 199.056 55.7646 190.683 61.9378 184.51C68.111 178.337 76.4836 174.869 85.2138 174.869C93.944 174.869 102.317 178.337 108.49 184.51C114.663 190.683 118.131 199.056 118.131 207.786H120.428Z"/>
</mask>
<path d="M120.428 207.786C120.428 198.447 116.718 189.49 110.114 182.886C103.51 176.282 94.5531 172.572 85.2138 172.572C75.8745 172.572 66.9178 176.282 60.3139 182.886C53.71 189.49 50 198.447 50 207.786H52.2966C52.2966 199.056 55.7646 190.683 61.9378 184.51C68.111 178.337 76.4836 174.869 85.2138 174.869C93.944 174.869 102.317 178.337 108.49 184.51C114.663 190.683 118.131 199.056 118.131 207.786H120.428Z" stroke="#4D6BFF" stroke-width="6" mask="url(#path-4-inside-2_0_1)"/>
<path d="M105.914 153.052C105.914 163.85 97.1604 172.603 86.3623 172.603C75.5642 172.603 66.8105 163.85 66.8105 153.052C66.8105 142.254 75.5642 133.5 86.3623 133.5C97.1604 133.5 105.914 142.254 105.914 153.052Z" stroke="#4D6BFF" stroke-width="3"/>
</g>
<mask id="path-6-inside-3_0_1" fill="white">
<path d="M157.428 194.786C157.428 185.447 153.718 176.49 147.114 169.886C140.51 163.282 131.553 159.572 122.214 159.572C112.875 159.572 103.918 163.282 97.3139 169.886C90.71 176.49 87 185.447 87 194.786H89.2966C89.2966 186.056 92.7646 177.683 98.9378 171.51C105.111 165.337 113.484 161.869 122.214 161.869C130.944 161.869 139.317 165.337 145.49 171.51C151.663 177.683 155.131 186.056 155.131 194.786H157.428Z"/>
</mask>
<path d="M157.428 194.786C157.428 185.447 153.718 176.49 147.114 169.886C140.51 163.282 131.553 159.572 122.214 159.572C112.875 159.572 103.918 163.282 97.3139 169.886C90.71 176.49 87 185.447 87 194.786H89.2966C89.2966 186.056 92.7646 177.683 98.9378 171.51C105.111 165.337 113.484 161.869 122.214 161.869C130.944 161.869 139.317 165.337 145.49 171.51C151.663 177.683 155.131 186.056 155.131 194.786H157.428Z" stroke="#4D6BFF" stroke-width="6" mask="url(#path-6-inside-3_0_1)"/>
<path d="M142.914 140.052C142.914 150.85 134.16 159.603 123.362 159.603C112.564 159.603 103.811 150.85 103.811 140.052C103.811 129.254 112.564 120.5 123.362 120.5C134.16 120.5 142.914 129.254 142.914 140.052Z" stroke="#4D6BFF" stroke-width="3"/>
<path d="M307 342L300.519 332.443L295.483 342.834L307 342ZM143.564 263.9L147.268 265.695L148.141 263.896L144.436 262.1L143.564 263.9ZM154.677 269.286L162.087 272.877L162.959 271.077L155.55 267.486L154.677 269.286ZM169.496 276.468L176.905 280.059L177.777 278.259L170.368 274.668L169.496 276.468ZM184.314 283.65L191.723 287.241L192.595 285.441L185.186 281.85L184.314 283.65ZM199.132 290.832L206.541 294.423L207.413 292.623L200.004 289.032L199.132 290.832ZM213.95 298.014L221.359 301.604L222.232 299.805L214.822 296.214L213.95 298.014ZM228.768 305.195L236.177 308.786L237.05 306.986L229.641 303.396L228.768 305.195ZM243.587 312.377L250.996 315.968L251.868 314.168L244.459 310.577L243.587 312.377ZM258.405 319.559L265.814 323.15L266.686 321.35L259.277 317.759L258.405 319.559ZM273.223 326.741L280.632 330.332L281.504 328.532L274.095 324.941L273.223 326.741ZM288.041 333.923L295.45 337.514L296.323 335.714L288.913 332.123L288.041 333.923ZM307 342L300.519 332.443L295.483 342.834L307 342ZM143.564 263.9L147.268 265.695L148.141 263.896L144.436 262.1L143.564 263.9ZM154.677 269.286L162.087 272.877L162.959 271.077L155.55 267.486L154.677 269.286ZM169.496 276.468L176.905 280.059L177.777 278.259L170.368 274.668L169.496 276.468ZM184.314 283.65L191.723 287.241L192.595 285.441L185.186 281.85L184.314 283.65ZM199.132 290.832L206.541 294.423L207.413 292.623L200.004 289.032L199.132 290.832ZM213.95 298.014L221.359 301.604L222.232 299.805L214.822 296.214L213.95 298.014ZM228.768 305.195L236.177 308.786L237.05 306.986L229.641 303.396L228.768 305.195ZM243.587 312.377L250.996 315.968L251.868 314.168L244.459 310.577L243.587 312.377ZM258.405 319.559L265.814 323.15L266.686 321.35L259.277 317.759L258.405 319.559ZM273.223 326.741L280.632 330.332L281.504 328.532L274.095 324.941L273.223 326.741ZM288.041 333.923L295.45 337.514L296.323 335.714L288.913 332.123L288.041 333.923Z" fill="#4D6BFF"/>
<path d="M353 275L358.774 265H347.226L353 275ZM352 192V196.15H354V192H352ZM352 204.45V212.75H354V204.45H352ZM352 221.05V229.35H354V221.05H352ZM352 237.65V245.95H354V237.65H352ZM352 254.25V262.55H354V254.25H352ZM353 275L358.774 265H347.226L353 275ZM352 192V196.15H354V192H352ZM352 204.45V212.75H354V204.45H352ZM352 221.05V229.35H354V221.05H352ZM352 237.65V245.95H354V237.65H352ZM352 254.25V262.55H354V254.25H352Z" fill="#4D6BFF"/>
<path d="M413 342L424.43 343.637L420.133 332.919L413 342ZM609.628 262.072L605.839 263.591L606.584 265.447L610.372 263.928L609.628 262.072ZM598.262 266.63L590.685 269.668L591.43 271.524L599.007 268.486L598.262 266.63ZM583.109 272.706L575.532 275.745L576.276 277.601L583.853 274.563L583.109 272.706ZM567.955 278.783L560.378 281.822L561.122 283.678L568.699 280.64L567.955 278.783ZM552.801 284.86L545.224 287.899L545.968 289.755L553.545 286.717L552.801 284.86ZM537.647 290.937L530.07 293.976L530.815 295.832L538.391 292.794L537.647 290.937ZM522.493 297.014L514.916 300.053L515.661 301.909L523.238 298.87L522.493 297.014ZM507.339 303.091L499.762 306.13L500.507 307.986L508.084 304.947L507.339 303.091ZM492.186 309.168L484.609 312.206L485.353 314.063L492.93 311.024L492.186 309.168ZM477.032 315.245L469.455 318.283L470.199 320.14L477.776 317.101L477.032 315.245ZM461.878 321.322L454.301 324.36L455.045 326.217L462.622 323.178L461.878 321.322ZM446.724 327.399L439.147 330.437L439.891 332.294L447.468 329.255L446.724 327.399ZM431.57 333.476L423.993 336.514L424.738 338.37L432.315 335.332L431.57 333.476ZM413 342L424.43 343.637L420.133 332.919L413 342ZM609.628 262.072L605.839 263.591L606.584 265.447L610.372 263.928L609.628 262.072ZM598.262 266.63L590.685 269.668L591.43 271.524L599.007 268.486L598.262 266.63ZM583.109 272.706L575.532 275.745L576.276 277.601L583.853 274.563L583.109 272.706ZM567.955 278.783L560.378 281.822L561.122 283.678L568.699 280.64L567.955 278.783ZM552.801 284.86L545.224 287.899L545.968 289.755L553.545 286.717L552.801 284.86ZM537.647 290.937L530.07 293.976L530.815 295.832L538.391 292.794L537.647 290.937ZM522.493 297.014L514.916 300.053L515.661 301.909L523.238 298.87L522.493 297.014ZM507.339 303.091L499.762 306.13L500.507 307.986L508.084 304.947L507.339 303.091ZM492.186 309.168L484.609 312.206L485.353 314.063L492.93 311.024L492.186 309.168ZM477.032 315.245L469.455 318.283L470.199 320.14L477.776 317.101L477.032 315.245ZM461.878 321.322L454.301 324.36L455.045 326.217L462.622 323.178L461.878 321.322ZM446.724 327.399L439.147 330.437L439.891 332.294L447.468 329.255L446.724 327.399ZM431.57 333.476L423.993 336.514L424.738 338.37L432.315 335.332L431.57 333.476Z" fill="#4D6BFF"/>
<path d="M76.184 352.36C75.008 352.36 74.288 351.784 74.048 350.728C73.304 351.712 71.936 352.36 70.28 352.36C67.952 352.36 66.392 351.04 66.392 349.072C66.392 347.176 67.664 345.856 70.136 345.448L73.928 344.8C73.928 342.88 72.896 341.872 70.88 341.872C68.864 341.872 67.616 342.688 66.68 344.296C66.68 341.584 68.432 340.024 71.312 340.024C74.312 340.024 75.944 341.608 75.944 344.584V349.288C75.944 350.104 76.376 350.584 77.12 350.584C77.648 350.584 78.056 350.368 78.344 350.008C78.344 351.64 77.312 352.36 76.184 352.36ZM68.504 348.88C68.504 349.912 69.416 350.632 70.832 350.632C72.2 350.632 73.352 349.96 73.928 348.928V346.24L70.784 346.816C69.176 347.128 68.504 347.848 68.504 348.88ZM80.3977 342.904V340.384H82.4137V342.04C83.1817 340.72 84.7417 340.024 86.4217 340.024C89.7097 340.024 92.0857 342.448 92.0857 346.192C92.0857 349.912 89.7097 352.36 86.4217 352.36C84.7177 352.36 83.1577 351.664 82.4137 350.344V354.52V356.32H80.3977V354.592V342.904ZM82.4137 347.872C83.0137 349.552 84.3577 350.44 86.0137 350.44C88.3897 350.44 89.9737 348.664 89.9737 346.192C89.9737 343.696 88.3897 341.944 86.0137 341.944C84.3817 341.944 83.0137 342.808 82.4137 344.488V347.872ZM95.1605 342.904V340.384H97.1765V342.04C97.9445 340.72 99.5045 340.024 101.185 340.024C104.473 340.024 106.849 342.448 106.849 346.192C106.849 349.912 104.473 352.36 101.185 352.36C99.4805 352.36 97.9205 351.664 97.1765 350.344V354.52V356.32H95.1605V354.592V342.904ZM97.1765 347.872C97.7765 349.552 99.1205 350.44 100.777 350.44C103.153 350.44 104.737 348.664 104.737 346.192C104.737 343.696 103.153 341.944 100.777 341.944C99.1445 341.944 97.7765 342.808 97.1765 344.488V347.872ZM113.019 352.36C111.339 352.36 109.971 351.808 108.987 350.752V348.4C109.899 349.768 111.507 350.584 113.067 350.584C114.339 350.584 115.011 350.008 115.011 349.048C115.011 348.208 114.627 347.776 113.739 347.392L111.579 346.48C110.019 345.808 109.227 344.824 109.227 343.312C109.227 341.416 110.883 340.024 113.187 340.024C114.507 340.024 115.707 340.408 116.595 341.152V343.336C115.899 342.424 114.507 341.752 113.235 341.752C112.083 341.752 111.339 342.328 111.339 343.168C111.339 343.96 111.795 344.416 112.707 344.776L114.939 345.736C116.355 346.336 117.123 347.344 117.123 348.88C117.123 350.968 115.419 352.36 113.019 352.36ZM129.232 352.36C127.552 352.36 126.184 351.808 125.2 350.752V348.4C126.112 349.768 127.72 350.584 129.28 350.584C130.552 350.584 131.224 350.008 131.224 349.048C131.224 348.208 130.84 347.776 129.952 347.392L127.792 346.48C126.232 345.808 125.44 344.824 125.44 343.312C125.44 341.416 127.096 340.024 129.4 340.024C130.72 340.024 131.92 340.408 132.808 341.152V343.336C132.112 342.424 130.72 341.752 129.448 341.752C128.296 341.752 127.552 342.328 127.552 343.168C127.552 343.96 128.008 344.416 128.92 344.776L131.152 345.736C132.568 346.336 133.336 347.344 133.336 348.88C133.336 350.968 131.632 352.36 129.232 352.36ZM140.338 352.36C138.058 352.36 136.81 350.968 136.81 348.712V342.256H134.314L138.85 337.384V340.384H143.746V342.256H138.85V348.088C138.85 349.576 139.738 350.368 141.154 350.368C142.354 350.368 143.338 349.816 143.938 348.784C143.938 351.088 142.498 352.36 140.338 352.36ZM151.423 352.36C147.895 352.36 145.303 349.792 145.303 346.168C145.303 342.544 147.895 340.024 151.423 340.024C154.927 340.024 157.519 342.544 157.519 346.168C157.519 349.792 154.927 352.36 151.423 352.36ZM147.439 346.168C147.439 348.688 149.071 350.44 151.423 350.44C153.751 350.44 155.407 348.688 155.407 346.168C155.407 343.672 153.775 341.944 151.423 341.944C149.023 341.944 147.439 343.672 147.439 346.168ZM160.605 352V350.272V342.616V340.384H162.477V342.592C163.005 341.056 164.229 340.144 165.861 340.144C166.293 340.144 166.749 340.192 166.941 340.312V342.232C166.629 342.16 166.149 342.112 165.669 342.112C164.229 342.112 163.053 342.928 162.621 344.536V350.248V352H160.605ZM174.127 352.36C170.551 352.36 168.079 350.176 168.079 346.24C168.079 342.616 170.119 340.024 173.719 340.024C177.271 340.024 179.263 342.256 179.239 346.36H170.215C170.311 349.144 172.279 350.344 174.895 350.344C176.647 350.344 178.327 349.648 179.047 348.352C179.047 350.848 177.223 352.36 174.127 352.36ZM170.239 344.848H177.079C177.079 343.168 175.951 341.56 173.695 341.56C171.679 341.56 170.407 342.856 170.239 344.848ZM188.254 356.32C188.59 355.576 188.878 355.024 189.238 354.256L191.014 350.632L187.198 342.352C186.742 341.32 186.742 341.32 186.31 340.384H188.59C189.07 341.44 189.07 341.44 189.502 342.424L192.19 348.28L194.758 342.52C195.31 341.248 195.31 341.248 195.67 340.384H197.926L196.966 342.472L190.606 356.32H188.254ZM204.987 352.36C201.459 352.36 198.867 349.792 198.867 346.168C198.867 342.544 201.459 340.024 204.987 340.024C208.491 340.024 211.083 342.544 211.083 346.168C211.083 349.792 208.491 352.36 204.987 352.36ZM201.003 346.168C201.003 348.688 202.635 350.44 204.987 350.44C207.315 350.44 208.971 348.688 208.971 346.168C208.971 343.672 207.339 341.944 204.987 341.944C202.587 341.944 201.003 343.672 201.003 346.168ZM221.781 342.904V340.384H223.797V350.152V352H221.781V350.56C221.061 351.688 219.837 352.36 218.109 352.36C215.397 352.36 213.789 350.584 213.789 347.944V342.904V340.384H215.805V347.296C215.805 349.216 216.909 350.392 218.685 350.392C220.221 350.392 221.181 349.696 221.781 348.28V342.904ZM227.853 352V350.272V342.616V340.384H229.725V342.592C230.253 341.056 231.477 340.144 233.109 340.144C233.541 340.144 233.997 340.192 234.189 340.312V342.232C233.877 342.16 233.397 342.112 232.917 342.112C231.477 342.112 230.301 342.928 229.869 344.536V350.248V352H227.853ZM75.776 369V366.48H77.816V382.152V384H75.776V382.368C74.984 383.664 73.424 384.36 71.768 384.36C68.48 384.36 66.104 381.936 66.104 378.192C66.104 374.472 68.48 372.024 71.768 372.024C73.472 372.024 75.008 372.72 75.776 373.992V369ZM68.24 378.192C68.24 380.688 69.8 382.44 72.176 382.44C73.784 382.44 75.152 381.576 75.776 379.944V376.464C75.152 374.808 73.808 373.944 72.176 373.944C69.8 373.944 68.24 375.744 68.24 378.192ZM90.689 384.36C89.513 384.36 88.793 383.784 88.553 382.728C87.809 383.712 86.441 384.36 84.785 384.36C82.457 384.36 80.897 383.04 80.897 381.072C80.897 379.176 82.169 377.856 84.641 377.448L88.433 376.8C88.433 374.88 87.401 373.872 85.385 373.872C83.369 373.872 82.121 374.688 81.185 376.296C81.185 373.584 82.937 372.024 85.817 372.024C88.817 372.024 90.449 373.608 90.449 376.584V381.288C90.449 382.104 90.881 382.584 91.625 382.584C92.153 382.584 92.561 382.368 92.849 382.008C92.849 383.64 91.817 384.36 90.689 384.36ZM83.009 380.88C83.009 381.912 83.921 382.632 85.337 382.632C86.705 382.632 87.857 381.96 88.433 380.928V378.24L85.289 378.816C83.681 379.128 83.009 379.848 83.009 380.88ZM98.5603 384.36C96.2803 384.36 95.0323 382.968 95.0323 380.712V374.256H92.5363L97.0723 369.384V372.384H101.968V374.256H97.0723V380.088C97.0723 381.576 97.9603 382.368 99.3763 382.368C100.576 382.368 101.56 381.816 102.16 380.784C102.16 383.088 100.72 384.36 98.5603 384.36ZM113.605 384.36C112.429 384.36 111.709 383.784 111.469 382.728C110.725 383.712 109.357 384.36 107.701 384.36C105.373 384.36 103.813 383.04 103.813 381.072C103.813 379.176 105.085 377.856 107.557 377.448L111.349 376.8C111.349 374.88 110.317 373.872 108.301 373.872C106.285 373.872 105.037 374.688 104.101 376.296C104.101 373.584 105.853 372.024 108.733 372.024C111.733 372.024 113.365 373.608 113.365 376.584V381.288C113.365 382.104 113.797 382.584 114.541 382.584C115.069 382.584 115.477 382.368 115.765 382.008C115.765 383.64 114.733 384.36 113.605 384.36ZM105.925 380.88C105.925 381.912 106.837 382.632 108.253 382.632C109.621 382.632 110.773 381.96 111.349 380.928V378.24L108.205 378.816C106.597 379.128 105.925 379.848 105.925 380.88ZM124.534 372.384C124.942 373.608 124.942 373.608 125.254 374.64L127.558 381.624L130.822 372.384H132.814L136.03 381.552L138.31 374.712L139.054 372.384H141.262C140.854 373.536 140.854 373.536 140.422 374.712L137.086 384H135.07L131.806 375L128.542 384H126.526L123.19 374.784C122.734 373.512 122.734 373.512 122.35 372.384H124.534ZM143.665 384V382.272V374.904V372.384H145.681V382.2V384H143.665ZM143.185 368.496C143.185 367.656 143.833 367.008 144.697 367.008C145.537 367.008 146.161 367.656 146.161 368.496C146.161 369.336 145.537 369.96 144.697 369.96C143.833 369.96 143.185 369.336 143.185 368.496ZM153.765 384.36C151.485 384.36 150.237 382.968 150.237 380.712V374.256H147.741L152.277 369.384V372.384H157.173V374.256H152.277V380.088C152.277 381.576 153.165 382.368 154.581 382.368C155.781 382.368 156.765 381.816 157.365 380.784C157.365 383.088 155.925 384.36 153.765 384.36ZM167.898 384V382.272V377.088C167.898 375.168 166.77 373.992 164.922 373.992C163.314 373.992 162.33 374.712 161.73 376.176V382.2V384H159.714V382.272V369V366.48H161.73V373.968C162.45 372.744 163.698 372.024 165.474 372.024C168.258 372.024 169.938 373.8 169.938 376.44V382.272V384H167.898ZM179.889 388.32C180.225 387.576 180.513 387.024 180.873 386.256L182.649 382.632L178.833 374.352C178.377 373.32 178.377 373.32 177.945 372.384H180.225C180.705 373.44 180.705 373.44 181.137 374.424L183.825 380.28L186.393 374.52C186.945 373.248 186.945 373.248 187.305 372.384H189.561L188.601 374.472L182.241 388.32H179.889ZM196.623 384.36C193.095 384.36 190.503 381.792 190.503 378.168C190.503 374.544 193.095 372.024 196.623 372.024C200.127 372.024 202.719 374.544 202.719 378.168C202.719 381.792 200.127 384.36 196.623 384.36ZM192.639 378.168C192.639 380.688 194.271 382.44 196.623 382.44C198.951 382.44 200.607 380.688 200.607 378.168C200.607 375.672 198.975 373.944 196.623 373.944C194.223 373.944 192.639 375.672 192.639 378.168ZM213.416 374.904V372.384H215.432V382.152V384H213.416V382.56C212.696 383.688 211.472 384.36 209.744 384.36C207.032 384.36 205.424 382.584 205.424 379.944V374.904V372.384H207.44V379.296C207.44 381.216 208.544 382.392 210.32 382.392C211.856 382.392 212.816 381.696 213.416 380.28V374.904Z" fill="#4D6BFF"/>
<path d="M6.38591 243.36C2.92991 243.36 0.577908 240.96 0.577908 237.24C0.577908 233.568 3.04991 231.024 6.67391 231.024C8.37791 231.024 9.72191 231.456 10.6579 232.32V234.768C9.91391 233.688 8.64191 232.896 6.81791 232.896C4.36991 232.896 2.71391 234.576 2.71391 237.12C2.71391 239.616 4.36991 241.296 6.98591 241.296C8.83391 241.296 10.1779 240.528 10.9219 239.016C10.9219 241.872 9.28991 243.36 6.38591 243.36ZM18.9295 243.36C15.4015 243.36 12.8095 240.792 12.8095 237.168C12.8095 233.544 15.4015 231.024 18.9295 231.024C22.4335 231.024 25.0255 233.544 25.0255 237.168C25.0255 240.792 22.4335 243.36 18.9295 243.36ZM14.9455 237.168C14.9455 239.688 16.5775 241.44 18.9295 241.44C21.2575 241.44 22.9135 239.688 22.9135 237.168C22.9135 234.672 21.2815 232.944 18.9295 232.944C16.5295 232.944 14.9455 234.672 14.9455 237.168ZM28.111 243V241.272V233.904V231.384H30.127V232.776C30.895 231.672 32.095 231.024 33.607 231.024C35.383 231.024 36.679 231.768 37.375 233.04C38.071 231.984 39.343 231.024 41.263 231.024C44.071 231.024 45.751 232.8 45.751 235.44V241.344V243H43.735V241.272V236.04C43.735 234.168 42.655 232.992 40.879 232.992C39.391 232.992 38.503 233.784 37.951 235.104V235.44V241.344V243H35.911V241.272V236.04C35.911 234.168 34.831 232.992 33.079 232.992C31.687 232.992 30.823 233.688 30.127 234.96V241.2V243H28.111ZM49.6003 243V241.272V233.904V231.384H51.6163V232.776C52.3843 231.672 53.5843 231.024 55.0963 231.024C56.8723 231.024 58.1683 231.768 58.8643 233.04C59.5603 231.984 60.8323 231.024 62.7523 231.024C65.5603 231.024 67.2403 232.8 67.2403 235.44V241.344V243H65.2243V241.272V236.04C65.2243 234.168 64.1443 232.992 62.3683 232.992C60.8803 232.992 59.9923 233.784 59.4403 235.104V235.44V241.344V243H57.4003V241.272V236.04C57.4003 234.168 56.3203 232.992 54.5683 232.992C53.1763 232.992 52.3123 233.688 51.6163 234.96V241.2V243H49.6003ZM78.7954 233.904V231.384H80.8114V241.152V243H78.7954V241.56C78.0754 242.688 76.8514 243.36 75.1234 243.36C72.4114 243.36 70.8034 241.584 70.8034 238.944V233.904V231.384H72.8194V238.296C72.8194 240.216 73.9234 241.392 75.6994 241.392C77.2354 241.392 78.1954 240.696 78.7954 239.28V233.904ZM93.0522 243V241.272V236.088C93.0522 234.168 91.9242 232.992 90.0762 232.992C88.4682 232.992 87.4842 233.712 86.8842 235.176V241.2V243H84.8682V241.272V233.904V231.384H86.8842V232.968C87.6042 231.744 88.8522 231.024 90.6282 231.024C93.4122 231.024 95.0922 232.8 95.0922 235.44V241.272V243H93.0522ZM98.9278 243V241.272V233.904V231.384H100.944V241.2V243H98.9278ZM98.4478 227.496C98.4478 226.656 99.0958 226.008 99.9598 226.008C100.8 226.008 101.424 226.656 101.424 227.496C101.424 228.336 100.8 228.96 99.9598 228.96C99.0958 228.96 98.4478 228.336 98.4478 227.496ZM109.819 243.36C106.363 243.36 104.011 240.96 104.011 237.24C104.011 233.568 106.483 231.024 110.107 231.024C111.811 231.024 113.155 231.456 114.091 232.32V234.768C113.347 233.688 112.075 232.896 110.251 232.896C107.803 232.896 106.147 234.576 106.147 237.12C106.147 239.616 107.803 241.296 110.419 241.296C112.267 241.296 113.611 240.528 114.355 239.016C114.355 241.872 112.723 243.36 109.819 243.36ZM126.229 243.36C125.053 243.36 124.333 242.784 124.093 241.728C123.349 242.712 121.981 243.36 120.325 243.36C117.997 243.36 116.437 242.04 116.437 240.072C116.437 238.176 117.709 236.856 120.181 236.448L123.973 235.8C123.973 233.88 122.941 232.872 120.925 232.872C118.909 232.872 117.661 233.688 116.725 235.296C116.725 232.584 118.477 231.024 121.357 231.024C124.357 231.024 125.989 232.608 125.989 235.584V240.288C125.989 241.104 126.421 241.584 127.165 241.584C127.693 241.584 128.101 241.368 128.389 241.008C128.389 242.64 127.357 243.36 126.229 243.36ZM118.549 239.88C118.549 240.912 119.461 241.632 120.877 241.632C122.245 241.632 123.397 240.96 123.973 239.928V237.24L120.829 237.816C119.221 238.128 118.549 238.848 118.549 239.88ZM134.1 243.36C131.82 243.36 130.572 241.968 130.572 239.712V233.256H128.076L132.612 228.384V231.384H137.508V233.256H132.612V239.088C132.612 240.576 133.5 241.368 134.916 241.368C136.116 241.368 137.1 240.816 137.7 239.784C137.7 242.088 136.26 243.36 134.1 243.36ZM140.049 243V241.272V233.904V231.384H142.065V241.2V243H140.049ZM139.569 227.496C139.569 226.656 140.217 226.008 141.081 226.008C141.921 226.008 142.545 226.656 142.545 227.496C142.545 228.336 141.921 228.96 141.081 228.96C140.217 228.96 139.569 228.336 139.569 227.496ZM151.253 243.36C147.725 243.36 145.133 240.792 145.133 237.168C145.133 233.544 147.725 231.024 151.253 231.024C154.757 231.024 157.349 233.544 157.349 237.168C157.349 240.792 154.757 243.36 151.253 243.36ZM147.269 237.168C147.269 239.688 148.901 241.44 151.253 241.44C153.581 241.44 155.237 239.688 155.237 237.168C155.237 234.672 153.605 232.944 151.253 232.944C148.853 232.944 147.269 234.672 147.269 237.168ZM168.618 243V241.272V236.088C168.618 234.168 167.49 232.992 165.642 232.992C164.034 232.992 163.05 233.712 162.45 235.176V241.2V243H160.434V241.272V233.904V231.384H162.45V232.968C163.17 231.744 164.418 231.024 166.194 231.024C168.978 231.024 170.658 232.8 170.658 235.44V241.272V243H168.618Z" fill="#4D6BFF"/>
<path d="M572.865 243V241.272V233.904V231.384H574.881V241.2V243H572.865ZM572.385 227.496C572.385 226.656 573.033 226.008 573.897 226.008C574.737 226.008 575.361 226.656 575.361 227.496C575.361 228.336 574.737 228.96 573.897 228.96C573.033 228.96 572.385 228.336 572.385 227.496ZM587.117 243V241.272V236.088C587.117 234.168 585.989 232.992 584.141 232.992C582.533 232.992 581.549 233.712 580.949 235.176V241.2V243H578.933V241.272V233.904V231.384H580.949V232.968C581.669 231.744 582.917 231.024 584.693 231.024C587.477 231.024 589.157 232.8 589.157 235.44V241.272V243H587.117ZM595.877 243.36C594.197 243.36 592.829 242.808 591.845 241.752V239.4C592.757 240.768 594.365 241.584 595.925 241.584C597.197 241.584 597.869 241.008 597.869 240.048C597.869 239.208 597.485 238.776 596.597 238.392L594.437 237.48C592.877 236.808 592.085 235.824 592.085 234.312C592.085 232.416 593.741 231.024 596.045 231.024C597.365 231.024 598.565 231.408 599.453 232.152V234.336C598.757 233.424 597.365 232.752 596.093 232.752C594.941 232.752 594.197 233.328 594.197 234.168C594.197 234.96 594.653 235.416 595.565 235.776L597.797 236.736C599.213 237.336 599.981 238.344 599.981 239.88C599.981 241.968 598.277 243.36 595.877 243.36ZM606.983 243.36C604.703 243.36 603.455 241.968 603.455 239.712V233.256H600.959L605.495 228.384V231.384H610.391V233.256H605.495V239.088C605.495 240.576 606.383 241.368 607.799 241.368C608.999 241.368 609.983 240.816 610.583 239.784C610.583 242.088 609.143 243.36 606.983 243.36ZM612.932 243V241.272V233.904V231.384H614.948V241.2V243H612.932ZM612.452 227.496C612.452 226.656 613.1 226.008 613.964 226.008C614.804 226.008 615.428 226.656 615.428 227.496C615.428 228.336 614.804 228.96 613.964 228.96C613.1 228.96 612.452 228.336 612.452 227.496ZM623.032 243.36C620.752 243.36 619.504 241.968 619.504 239.712V233.256H617.008L621.544 228.384V231.384H626.44V233.256H621.544V239.088C621.544 240.576 622.432 241.368 623.848 241.368C625.048 241.368 626.032 240.816 626.632 239.784C626.632 242.088 625.192 243.36 623.032 243.36ZM636.757 233.904V231.384H638.773V241.152V243H636.757V241.56C636.037 242.688 634.813 243.36 633.085 243.36C630.373 243.36 628.765 241.584 628.765 238.944V233.904V231.384H630.781V238.296C630.781 240.216 631.885 241.392 633.661 241.392C635.197 241.392 636.157 240.696 636.757 239.28V233.904ZM646.862 243.36C644.582 243.36 643.334 241.968 643.334 239.712V233.256H640.838L645.374 228.384V231.384H650.27V233.256H645.374V239.088C645.374 240.576 646.262 241.368 647.678 241.368C648.878 241.368 649.862 240.816 650.462 239.784C650.462 242.088 649.022 243.36 646.862 243.36ZM652.811 243V241.272V233.904V231.384H654.827V241.2V243H652.811ZM652.331 227.496C652.331 226.656 652.979 226.008 653.843 226.008C654.683 226.008 655.307 226.656 655.307 227.496C655.307 228.336 654.683 228.96 653.843 228.96C652.979 228.96 652.331 228.336 652.331 227.496ZM664.015 243.36C660.487 243.36 657.895 240.792 657.895 237.168C657.895 233.544 660.487 231.024 664.015 231.024C667.519 231.024 670.111 233.544 670.111 237.168C670.111 240.792 667.519 243.36 664.015 243.36ZM660.031 237.168C660.031 239.688 661.663 241.44 664.015 241.44C666.343 241.44 667.999 239.688 667.999 237.168C667.999 234.672 666.367 232.944 664.015 232.944C661.615 232.944 660.031 234.672 660.031 237.168ZM681.38 243V241.272V236.088C681.38 234.168 680.252 232.992 678.404 232.992C676.796 232.992 675.812 233.712 675.212 235.176V241.2V243H673.196V241.272V233.904V231.384H675.212V232.968C675.932 231.744 677.18 231.024 678.956 231.024C681.74 231.024 683.42 232.8 683.42 235.44V241.272V243H681.38ZM690.141 243.36C688.461 243.36 687.093 242.808 686.109 241.752V239.4C687.021 240.768 688.629 241.584 690.189 241.584C691.461 241.584 692.133 241.008 692.133 240.048C692.133 239.208 691.749 238.776 690.861 238.392L688.701 237.48C687.141 236.808 686.349 235.824 686.349 234.312C686.349 232.416 688.005 231.024 690.309 231.024C691.629 231.024 692.829 231.408 693.717 232.152V234.336C693.021 233.424 691.629 232.752 690.357 232.752C689.205 232.752 688.461 233.328 688.461 234.168C688.461 234.96 688.917 235.416 689.829 235.776L692.061 236.736C693.477 237.336 694.245 238.344 694.245 239.88C694.245 241.968 692.541 243.36 690.141 243.36Z" fill="#4D6BFF"/>
<path d="M337.634 162.36C336.458 162.36 335.738 161.784 335.498 160.728C334.754 161.712 333.386 162.36 331.73 162.36C329.402 162.36 327.842 161.04 327.842 159.072C327.842 157.176 329.114 155.856 331.586 155.448L335.378 154.8C335.378 152.88 334.346 151.872 332.33 151.872C330.314 151.872 329.066 152.688 328.13 154.296C328.13 151.584 329.882 150.024 332.762 150.024C335.762 150.024 337.394 151.608 337.394 154.584V159.288C337.394 160.104 337.826 160.584 338.57 160.584C339.098 160.584 339.506 160.368 339.794 160.008C339.794 161.64 338.762 162.36 337.634 162.36ZM329.954 158.88C329.954 159.912 330.866 160.632 332.282 160.632C333.65 160.632 334.802 159.96 335.378 158.928V156.24L332.234 156.816C330.626 157.128 329.954 157.848 329.954 158.88ZM341.847 152.904V150.384H343.863V152.04C344.631 150.72 346.191 150.024 347.871 150.024C351.159 150.024 353.535 152.448 353.535 156.192C353.535 159.912 351.159 162.36 347.871 162.36C346.167 162.36 344.607 161.664 343.863 160.344V164.52V166.32H341.847V164.592V152.904ZM343.863 157.872C344.463 159.552 345.807 160.44 347.463 160.44C349.839 160.44 351.423 158.664 351.423 156.192C351.423 153.696 349.839 151.944 347.463 151.944C345.831 151.944 344.463 152.808 343.863 154.488V157.872ZM356.61 152.904V150.384H358.626V152.04C359.394 150.72 360.954 150.024 362.634 150.024C365.922 150.024 368.298 152.448 368.298 156.192C368.298 159.912 365.922 162.36 362.634 162.36C360.93 162.36 359.37 161.664 358.626 160.344V164.52V166.32H356.61V164.592V152.904ZM358.626 157.872C359.226 159.552 360.57 160.44 362.226 160.44C364.602 160.44 366.186 158.664 366.186 156.192C366.186 153.696 364.602 151.944 362.226 151.944C360.594 151.944 359.226 152.808 358.626 154.488V157.872ZM374.469 162.36C372.789 162.36 371.421 161.808 370.437 160.752V158.4C371.349 159.768 372.957 160.584 374.517 160.584C375.789 160.584 376.461 160.008 376.461 159.048C376.461 158.208 376.077 157.776 375.189 157.392L373.029 156.48C371.469 155.808 370.677 154.824 370.677 153.312C370.677 151.416 372.333 150.024 374.637 150.024C375.957 150.024 377.157 150.408 378.045 151.152V153.336C377.349 152.424 375.957 151.752 374.685 151.752C373.533 151.752 372.789 152.328 372.789 153.168C372.789 153.96 373.245 154.416 374.157 154.776L376.389 155.736C377.805 156.336 378.573 157.344 378.573 158.88C378.573 160.968 376.869 162.36 374.469 162.36Z" fill="#4D6BFF"/>
<rect x="236.5" y="1.5" width="234" height="135" rx="8.5" stroke="#4D6BFF" stroke-width="3"/>
<circle cx="403" cy="78" r="29.5" stroke="#4D6BFF" stroke-width="3"/>
<line x1="402.5" y1="50" x2="402.5" y2="78" stroke="#4D6BFF" stroke-width="3"/>
<line x1="402.211" y1="77.115" x2="421.211" y2="103.115" stroke="#4D6BFF" stroke-width="3"/>
<line x1="234.994" y1="24.5" x2="471.994" y2="23.5" stroke="#4D6BFF" stroke-width="3"/>
<rect x="280" y="80" width="7" height="27" stroke="#4D6BFF" stroke-width="2"/>
<rect x="288" y="67" width="7" height="40" stroke="#4D6BFF" stroke-width="2"/>
<rect x="296" y="77" width="7" height="30" stroke="#4D6BFF" stroke-width="2"/>
<rect x="320" y="78" width="7" height="29" stroke="#4D6BFF" stroke-width="2"/>
<rect x="312" y="89" width="7" height="18" stroke="#4D6BFF" stroke-width="2"/>
<rect x="304" y="61" width="7" height="46" stroke="#4D6BFF" stroke-width="2"/>
<line x1="269.5" y1="50" x2="269.5" y2="109" stroke="#4D6BFF" stroke-width="3"/>
<line x1="268" y1="107.5" x2="334" y2="107.5" stroke="#4D6BFF" stroke-width="3"/>
<circle cx="250.5" cy="12.5" r="2.5" stroke="#4D6BFF" stroke-width="4"/>
<circle cx="265.5" cy="12.5" r="2.5" stroke="#4D6BFF" stroke-width="4"/>
<circle cx="280.5" cy="12.5" r="2.5" stroke="#4D6BFF" stroke-width="4"/>
<path d="M599 128C599 126.343 600.343 125 602 125H607C608.105 125 609 125.895 609 127C609 129.209 607.209 131 605 131H602C600.343 131 599 129.657 599 128Z" fill="#4D6BFF"/>
<path d="M623 125C621.343 125 620 126.343 620 128C620 129.657 621.343 131 623 131H626C628.209 131 630 129.209 630 127C630 125.895 629.105 125 628 125H623Z" fill="#4D6BFF"/>
<path d="M602 141C600.343 141 599 142.343 599 144C599 145.657 600.343 147 602 147H605C607.209 147 609 145.209 609 143C609 141.895 608.105 141 607 141H602Z" fill="#4D6BFF"/>
<path d="M620 144C620 142.343 621.343 141 623 141H628C629.105 141 630 141.895 630 143C630 145.209 628.209 147 626 147H623C621.343 147 620 145.657 620 144Z" fill="#4D6BFF"/>
<path d="M602 157C600.343 157 599 158.343 599 160C599 161.657 600.343 163 602 163H605C607.209 163 609 161.209 609 159C609 157.895 608.105 157 607 157H602Z" fill="#4D6BFF"/>
<path d="M620 160C620 158.343 621.343 157 623 157H628C629.105 157 630 157.895 630 159C630 161.209 628.209 163 626 163H623C621.343 163 620 161.657 620 160Z" fill="#4D6BFF"/>
<path d="M657 151C657 149.343 658.343 148 660 148H662C663.105 148 664 148.895 664 150C664 152.209 662.209 154 660 154H659.333C658.045 154 657 152.955 657 151.667V151Z" fill="#4D6BFF"/>
<path d="M660 167C658.343 167 657 168.343 657 170V170.667C657 171.955 658.045 173 659.333 173H660C662.209 173 664 171.209 664 169C664 167.895 663.105 167 662 167H660Z" fill="#4D6BFF"/>
<path d="M657 189C657 187.343 658.343 186 660 186H662C663.105 186 664 186.895 664 188C664 190.209 662.209 192 660 192H659.333C658.045 192 657 190.955 657 189.667V189Z" fill="#4D6BFF"/>
<path fill-rule="evenodd" clip-rule="evenodd" d="M583 104C581.895 104 581 104.895 581 106C581 107.105 581.895 108 583 108H585.416C585.148 108.612 585 109.289 585 110V211C585 211.711 585.148 212.388 585.416 213H583C581.895 213 581 213.895 581 215C581 216.105 581.895 217 583 217H682.333C683.806 217 685 215.806 685 214.333C685 213.597 684.403 213 683.667 213H679.584C679.852 212.388 680 211.711 680 211V138C680 137.289 679.852 136.612 679.584 136H681.333C682.806 136 684 134.806 684 133.333C684 132.597 683.403 132 682.667 132H645V110C645 109.289 644.852 108.612 644.584 108H645.333C646.806 108 648 106.806 648 105.333C648 104.597 647.403 104 646.667 104H583ZM628.9 213H640C641.105 213 642 212.105 642 211V110C642 108.895 641.105 108 640 108H590C588.895 108 588 108.895 588 110V211C588 212.105 588.895 213 590 213H600.1C600.034 212.677 600 212.342 600 212V189C600 186.239 602.239 184 605 184H624C626.761 184 629 186.239 629 189V212C629 212.342 628.966 212.677 628.9 213ZM625.732 213H603.268C603.097 212.706 603 212.364 603 212V189C603 187.895 603.895 187 605 187H624C625.105 187 626 187.895 626 189V212C626 212.364 625.903 212.706 625.732 213ZM675 213H647C645.895 213 645 212.105 645 211V138C645 136.895 645.895 136 647 136H675C676.105 136 677 136.895 677 138V211C677 212.105 676.105 213 675 213Z" fill="#4D6BFF"/>
<defs>
<filter id="filter0_d_0_1" x="46" y="132" width="78.4277" height="83.7862" filterUnits="userSpaceOnUse" color-interpolation-filters="sRGB">
<feFlood flood-opacity="0" result="BackgroundImageFix"/>
<feColorMatrix in="SourceAlpha" type="matrix" values="0 0 0 0 0 0 0 0 0 0 0 0 0 0 0 0 0 0 127 0" result="hardAlpha"/>
<feOffset dy="4"/>
<feGaussianBlur stdDeviation="2"/>
<feComposite in2="hardAlpha" operator="out"/>
<feColorMatrix type="matrix" values="0 0 0 0 0 0 0 0 0 0 0 0 0 0 0 0 0 0 0.25 0"/>
<feBlend mode="normal" in2="BackgroundImageFix" result="effect1_dropShadow_0_1"/>
<feBlend mode="normal" in="SourceGraphic" in2="effect1_dropShadow_0_1" result="shape"/>
</filter>
</defs>
</svg>
