<svg width="987" height="438" viewBox="0 0 987 438" fill="none" xmlns="http://www.w3.org/2000/svg">
<path d="M0.175736 24V22.104V9V7.2H6.07974C9.07974 7.2 10.8077 8.76 10.8077 11.304C10.8077 13.152 9.70374 14.808 7.85574 15.072C9.94374 15.312 11.5037 16.872 11.5037 19.176C11.5037 22.176 9.51174 24 6.00774 24H0.175736ZM2.28774 22.176H5.74374C8.02374 22.176 9.34374 21.072 9.34374 19.104C9.34374 17.088 7.95174 16.008 5.67174 16.008H2.28774V22.176ZM2.28774 14.232H5.55174C7.54374 14.232 8.62374 13.248 8.62374 11.616C8.62374 9.96 7.56774 8.952 5.67174 8.952H2.28774V14.232ZM20.1827 24.36C16.6547 24.36 14.0627 21.792 14.0627 18.168C14.0627 14.544 16.6547 12.024 20.1827 12.024C23.6867 12.024 26.2787 14.544 26.2787 18.168C26.2787 21.792 23.6867 24.36 20.1827 24.36ZM16.1987 18.168C16.1987 20.688 17.8307 22.44 20.1827 22.44C22.5107 22.44 24.1667 20.688 24.1667 18.168C24.1667 15.672 22.5347 13.944 20.1827 13.944C17.7827 13.944 16.1987 15.672 16.1987 18.168ZM29.3642 9V6.48H31.3802V14.136C32.1482 12.768 33.7322 12.024 35.4602 12.024C38.7482 12.024 41.1002 14.448 41.1002 18.192C41.1002 21.912 38.7482 24.36 35.4602 24.36C33.6842 24.36 32.1242 23.616 31.3802 22.248V24H29.3642V9ZM31.3802 19.704C31.9562 21.504 33.3482 22.44 35.0522 22.44C37.4282 22.44 38.9882 20.664 38.9882 18.192C38.9882 15.696 37.4282 13.944 35.0522 13.944C33.3722 13.944 31.9562 14.88 31.3802 16.656V19.704ZM50.2649 24V22.272V14.616V12.384H52.1369V14.592C52.6649 13.056 53.8889 12.144 55.5209 12.144C55.9529 12.144 56.4089 12.192 56.6009 12.312V14.232C56.2889 14.16 55.8089 14.112 55.3289 14.112C53.8889 14.112 52.7129 14.928 52.2809 16.536V22.248V24H50.2649ZM63.787 24.36C60.211 24.36 57.739 22.176 57.739 18.24C57.739 14.616 59.779 12.024 63.379 12.024C66.931 12.024 68.923 14.256 68.899 18.36H59.875C59.971 21.144 61.939 22.344 64.555 22.344C66.307 22.344 67.987 21.648 68.707 20.352C68.707 22.848 66.883 24.36 63.787 24.36ZM59.899 16.848H66.739C66.739 15.168 65.611 13.56 63.355 13.56C61.339 13.56 60.067 14.856 59.899 16.848ZM74.9646 24.36C73.2846 24.36 71.9166 23.808 70.9326 22.752V20.4C71.8446 21.768 73.4526 22.584 75.0126 22.584C76.2846 22.584 76.9566 22.008 76.9566 21.048C76.9566 20.208 76.5726 19.776 75.6846 19.392L73.5246 18.48C71.9646 17.808 71.1726 16.824 71.1726 15.312C71.1726 13.416 72.8286 12.024 75.1326 12.024C76.4526 12.024 77.6526 12.408 78.5406 13.152V15.336C77.8446 14.424 76.4526 13.752 75.1806 13.752C74.0286 13.752 73.2846 14.328 73.2846 15.168C73.2846 15.96 73.7406 16.416 74.6526 16.776L76.8846 17.736C78.3006 18.336 79.0686 19.344 79.0686 20.88C79.0686 22.968 77.3646 24.36 74.9646 24.36ZM87.1502 24.36C83.6222 24.36 81.0302 21.792 81.0302 18.168C81.0302 14.544 83.6222 12.024 87.1502 12.024C90.6542 12.024 93.2462 14.544 93.2462 18.168C93.2462 21.792 90.6542 24.36 87.1502 24.36ZM83.1662 18.168C83.1662 20.688 84.7982 22.44 87.1502 22.44C89.4782 22.44 91.1342 20.688 91.1342 18.168C91.1342 15.672 89.5022 13.944 87.1502 13.944C84.7502 13.944 83.1662 15.672 83.1662 18.168ZM96.3317 24V22.272V9V6.48H98.3477V22.2V24H96.3317ZM102.927 12.384L103.815 14.664L106.503 21.552L109.215 14.592C109.719 13.296 109.719 13.296 110.055 12.384H112.311L111.351 14.736L107.559 24H105.423L101.655 14.76C101.127 13.464 101.127 13.464 100.671 12.384H102.927ZM119.578 24.36C116.002 24.36 113.53 22.176 113.53 18.24C113.53 14.616 115.57 12.024 119.17 12.024C122.722 12.024 124.714 14.256 124.69 18.36H115.666C115.762 21.144 117.73 22.344 120.346 22.344C122.098 22.344 123.778 21.648 124.498 20.352C124.498 22.848 122.674 24.36 119.578 24.36ZM115.69 16.848H122.53C122.53 15.168 121.402 13.56 119.146 13.56C117.13 13.56 115.858 14.856 115.69 16.848ZM130.755 24.36C129.075 24.36 127.707 23.808 126.723 22.752V20.4C127.635 21.768 129.243 22.584 130.803 22.584C132.075 22.584 132.747 22.008 132.747 21.048C132.747 20.208 132.363 19.776 131.475 19.392L129.315 18.48C127.755 17.808 126.963 16.824 126.963 15.312C126.963 13.416 128.619 12.024 130.923 12.024C132.243 12.024 133.443 12.408 134.331 13.152V15.336C133.635 14.424 132.243 13.752 130.971 13.752C129.819 13.752 129.075 14.328 129.075 15.168C129.075 15.96 129.531 16.416 130.443 16.776L132.675 17.736C134.091 18.336 134.859 19.344 134.859 20.88C134.859 22.968 133.155 24.36 130.755 24.36ZM144.256 24V22.104V9V7.2H149.8C154.504 7.2 158.344 10.176 158.344 15.6C158.344 21.024 154.504 24 149.8 24H144.256ZM146.368 22.104H149.752C153.064 22.104 156.136 19.968 156.136 15.6C156.136 11.232 153.064 9.096 149.752 9.096H146.368V22.104ZM162.113 24V22.104V9V7.2H164.225V9.096V22.2V24H162.113ZM169.048 24V22.104V9V7.2H174.592C179.296 7.2 183.136 10.176 183.136 15.6C183.136 21.024 179.296 24 174.592 24H169.048ZM171.16 22.104H174.544C177.856 22.104 180.928 19.968 180.928 15.6C180.928 11.232 177.856 9.096 174.544 9.096H171.16V22.104ZM189.616 24.36C187.936 24.36 186.568 23.808 185.584 22.752V20.4C186.496 21.768 188.104 22.584 189.664 22.584C190.936 22.584 191.608 22.008 191.608 21.048C191.608 20.208 191.224 19.776 190.336 19.392L188.176 18.48C186.616 17.808 185.824 16.824 185.824 15.312C185.824 13.416 187.48 12.024 189.784 12.024C191.104 12.024 192.304 12.408 193.192 13.152V15.336C192.496 14.424 191.104 13.752 189.832 13.752C188.68 13.752 187.936 14.328 187.936 15.168C187.936 15.96 188.392 16.416 189.304 16.776L191.536 17.736C192.952 18.336 193.72 19.344 193.72 20.88C193.72 22.968 192.016 24.36 189.616 24.36ZM202.733 24V22.272V14.616V12.384H204.605V14.592C205.133 13.056 206.357 12.144 207.989 12.144C208.421 12.144 208.877 12.192 209.069 12.312V14.232C208.757 14.16 208.277 14.112 207.797 14.112C206.357 14.112 205.181 14.928 204.749 16.536V22.248V24H202.733ZM216.255 24.36C212.679 24.36 210.207 22.176 210.207 18.24C210.207 14.616 212.247 12.024 215.847 12.024C219.399 12.024 221.391 14.256 221.367 18.36H212.343C212.439 21.144 214.407 22.344 217.023 22.344C218.775 22.344 220.455 21.648 221.175 20.352C221.175 22.848 219.351 24.36 216.255 24.36ZM212.367 16.848H219.207C219.207 15.168 218.079 13.56 215.823 13.56C213.807 13.56 212.535 14.856 212.367 16.848ZM228.414 28.68C225.534 28.68 223.278 27.552 223.278 25.68C223.278 24.48 224.07 23.592 225.51 23.016C224.958 22.656 224.526 22.056 224.526 21.312C224.526 20.52 225.03 19.896 225.726 19.56C224.502 18.864 223.734 17.64 223.734 16.104C223.734 13.68 225.558 12.024 228.198 12.024C228.918 12.024 229.59 12.144 230.166 12.384H234.078L234.054 14.256H232.254C232.518 14.808 232.662 15.432 232.662 16.104C232.662 18.504 230.814 20.136 228.174 20.136C227.79 20.136 227.43 20.112 227.07 20.04C226.71 20.16 226.47 20.4 226.47 20.736C226.47 21.24 226.83 21.48 227.742 21.648L230.982 22.128C232.974 22.416 234.198 23.304 234.198 24.96C234.198 27.192 231.942 28.68 228.414 28.68ZM225.318 25.248C225.318 26.472 226.878 27.12 228.774 27.12C230.814 27.12 232.206 26.448 232.206 25.272C232.206 24.432 231.582 24.12 230.406 23.952L227.07 23.472C226.23 23.76 225.318 24.384 225.318 25.248ZM225.678 16.104C225.678 17.592 226.71 18.576 228.174 18.576C229.662 18.576 230.718 17.568 230.718 16.104C230.718 14.592 229.662 13.608 228.174 13.608C226.71 13.608 225.678 14.592 225.678 16.104ZM236.803 24V22.272V14.904V12.384H238.819V22.2V24H236.803ZM236.323 8.496C236.323 7.656 236.971 7.008 237.835 7.008C238.675 7.008 239.299 7.656 239.299 8.496C239.299 9.336 238.675 9.96 237.835 9.96C236.971 9.96 236.323 9.336 236.323 8.496ZM245.849 24.36C244.169 24.36 242.801 23.808 241.817 22.752V20.4C242.729 21.768 244.337 22.584 245.897 22.584C247.169 22.584 247.841 22.008 247.841 21.048C247.841 20.208 247.457 19.776 246.569 19.392L244.409 18.48C242.849 17.808 242.057 16.824 242.057 15.312C242.057 13.416 243.713 12.024 246.017 12.024C247.337 12.024 248.537 12.408 249.425 13.152V15.336C248.729 14.424 247.337 13.752 246.065 13.752C244.913 13.752 244.169 14.328 244.169 15.168C244.169 15.96 244.625 16.416 245.537 16.776L247.769 17.736C249.185 18.336 249.953 19.344 249.953 20.88C249.953 22.968 248.249 24.36 245.849 24.36ZM256.955 24.36C254.675 24.36 253.427 22.968 253.427 20.712V14.256H250.931L255.467 9.384V12.384H260.363V14.256H255.467V20.088C255.467 21.576 256.355 22.368 257.771 22.368C258.971 22.368 259.955 21.816 260.555 20.784C260.555 23.088 259.115 24.36 256.955 24.36ZM267.968 24.36C264.392 24.36 261.92 22.176 261.92 18.24C261.92 14.616 263.96 12.024 267.56 12.024C271.112 12.024 273.104 14.256 273.08 18.36H264.056C264.152 21.144 266.12 22.344 268.736 22.344C270.488 22.344 272.168 21.648 272.888 20.352C272.888 22.848 271.064 24.36 267.968 24.36ZM264.08 16.848H270.92C270.92 15.168 269.792 13.56 267.536 13.56C265.52 13.56 264.248 14.856 264.08 16.848ZM275.792 24V22.272V14.616V12.384H277.664V14.592C278.192 13.056 279.416 12.144 281.048 12.144C281.48 12.144 281.936 12.192 282.128 12.312V14.232C281.816 14.16 281.336 14.112 280.856 14.112C279.416 14.112 278.24 14.928 277.808 16.536V22.248V24H275.792ZM289.314 24.36C285.738 24.36 283.266 22.176 283.266 18.24C283.266 14.616 285.306 12.024 288.906 12.024C292.458 12.024 294.45 14.256 294.426 18.36H285.402C285.498 21.144 287.466 22.344 290.082 22.344C291.834 22.344 293.514 21.648 294.234 20.352C294.234 22.848 292.41 24.36 289.314 24.36ZM285.426 16.848H292.266C292.266 15.168 291.138 13.56 288.882 13.56C286.866 13.56 285.594 14.856 285.426 16.848ZM306.013 9V6.48H308.053V22.152V24H306.013V22.368C305.221 23.664 303.661 24.36 302.005 24.36C298.717 24.36 296.341 21.936 296.341 18.192C296.341 14.472 298.717 12.024 302.005 12.024C303.709 12.024 305.245 12.72 306.013 13.992V9ZM298.477 18.192C298.477 20.688 300.037 22.44 302.413 22.44C304.021 22.44 305.389 21.576 306.013 19.944V16.464C305.389 14.808 304.045 13.944 302.413 13.944C300.037 13.944 298.477 15.744 298.477 18.192ZM28.6377 56V54.272V46.904V44.384H30.6537V54.2V56H28.6377ZM28.1577 40.496C28.1577 39.656 28.8057 39.008 29.6697 39.008C30.5097 39.008 31.1337 39.656 31.1337 40.496C31.1337 41.336 30.5097 41.96 29.6697 41.96C28.8057 41.96 28.1577 41.336 28.1577 40.496ZM42.8892 56V54.272V49.088C42.8892 47.168 41.7612 45.992 39.9132 45.992C38.3052 45.992 37.3212 46.712 36.7212 48.176V54.2V56H34.7052V54.272V46.904V44.384H36.7212V45.968C37.4412 44.744 38.6892 44.024 40.4652 44.024C43.2492 44.024 44.9292 45.8 44.9292 48.44V54.272V56H42.8892ZM58.8884 56.36C56.6084 56.36 55.3604 54.968 55.3604 52.712V46.256H52.8644L57.4004 41.384V44.384H62.2964V46.256H57.4004V52.088C57.4004 53.576 58.2884 54.368 59.7044 54.368C60.9044 54.368 61.8884 53.816 62.4884 52.784C62.4884 55.088 61.0484 56.36 58.8884 56.36ZM73.0214 56V54.272V49.088C73.0214 47.168 71.8934 45.992 70.0454 45.992C68.4374 45.992 67.4534 46.712 66.8534 48.176V54.2V56H64.8374V54.272V41V38.48H66.8534V45.968C67.5734 44.744 68.8214 44.024 70.5974 44.024C73.3814 44.024 75.0614 45.8 75.0614 48.44V54.272V56H73.0214ZM83.9611 56.36C80.3851 56.36 77.9131 54.176 77.9131 50.24C77.9131 46.616 79.9531 44.024 83.5531 44.024C87.1051 44.024 89.0971 46.256 89.0731 50.36H80.0491C80.1451 53.144 82.1131 54.344 84.7291 54.344C86.4811 54.344 88.1611 53.648 88.8811 52.352C88.8811 54.848 87.0571 56.36 83.9611 56.36ZM80.0731 48.848H86.9131C86.9131 47.168 85.7851 45.56 83.5291 45.56C81.5131 45.56 80.2411 46.856 80.0731 48.848ZM106.224 56V54.272V49.088C106.224 47.168 105.096 45.992 103.248 45.992C101.64 45.992 100.656 46.712 100.056 48.176V54.2V56H98.0399V54.272V46.904V44.384H100.056V45.968C100.776 44.744 102.024 44.024 103.8 44.024C106.584 44.024 108.264 45.8 108.264 48.44V54.272V56H106.224ZM117.164 56.36C113.588 56.36 111.116 54.176 111.116 50.24C111.116 46.616 113.156 44.024 116.756 44.024C120.308 44.024 122.3 46.256 122.276 50.36H113.252C113.348 53.144 115.316 54.344 117.932 54.344C119.684 54.344 121.364 53.648 122.084 52.352C122.084 54.848 120.26 56.36 117.164 56.36ZM113.276 48.848H120.116C120.116 47.168 118.988 45.56 116.732 45.56C114.716 45.56 113.444 46.856 113.276 48.848ZM129.231 56.36C126.951 56.36 125.703 54.968 125.703 52.712V46.256H123.207L127.743 41.384V44.384H132.639V46.256H127.743V52.088C127.743 53.576 128.631 54.368 130.047 54.368C131.247 54.368 132.231 53.816 132.831 52.784C132.831 55.088 131.391 56.36 129.231 56.36ZM135.828 44.384C136.236 45.608 136.236 45.608 136.548 46.64L138.852 53.624L142.116 44.384H144.108L147.324 53.552L149.604 46.712L150.348 44.384H152.556C152.148 45.536 152.148 45.536 151.716 46.712L148.38 56H146.364L143.1 47L139.836 56H137.82L134.484 46.784C134.028 45.512 134.028 45.512 133.644 44.384H135.828ZM159.977 56.36C156.449 56.36 153.857 53.792 153.857 50.168C153.857 46.544 156.449 44.024 159.977 44.024C163.481 44.024 166.073 46.544 166.073 50.168C166.073 53.792 163.481 56.36 159.977 56.36ZM155.993 50.168C155.993 52.688 157.625 54.44 159.977 54.44C162.305 54.44 163.961 52.688 163.961 50.168C163.961 47.672 162.329 45.944 159.977 45.944C157.577 45.944 155.993 47.672 155.993 50.168ZM169.159 56V54.272V46.616V44.384H171.031V46.592C171.559 45.056 172.783 44.144 174.415 44.144C174.847 44.144 175.303 44.192 175.495 44.312V46.232C175.183 46.16 174.703 46.112 174.223 46.112C172.783 46.112 171.607 46.928 171.175 48.536V54.248V56H169.159ZM185.443 56L179.539 49.952V54.2V56H177.523V54.272V41V38.48H179.539V49.664L182.707 46.616C184.003 45.392 184.027 45.392 185.083 44.384H187.771L185.371 46.616L182.083 49.688L186.715 54.416L188.227 56H185.443ZM196.361 56V54.272V46.904V44.384H198.377V54.2V56H196.361ZM195.881 40.496C195.881 39.656 196.529 39.008 197.393 39.008C198.233 39.008 198.857 39.656 198.857 40.496C198.857 41.336 198.233 41.96 197.393 41.96C196.529 41.96 195.881 41.336 195.881 40.496ZM210.613 56V54.272V49.088C210.613 47.168 209.485 45.992 207.637 45.992C206.029 45.992 205.045 46.712 204.445 48.176V54.2V56H202.429V54.272V46.904V44.384H204.445V45.968C205.165 44.744 206.413 44.024 208.189 44.024C210.973 44.024 212.653 45.8 212.653 48.44V54.272V56H210.613ZM227.692 56.36C224.164 56.36 221.572 53.792 221.572 50.168C221.572 46.544 224.164 44.024 227.692 44.024C231.196 44.024 233.788 46.544 233.788 50.168C233.788 53.792 231.196 56.36 227.692 56.36ZM223.708 50.168C223.708 52.688 225.34 54.44 227.692 54.44C230.02 54.44 231.676 52.688 231.676 50.168C231.676 47.672 230.044 45.944 227.692 45.944C225.292 45.944 223.708 47.672 223.708 50.168ZM236.873 56V54.272V46.616V44.384H238.745V46.592C239.273 45.056 240.497 44.144 242.129 44.144C242.561 44.144 243.017 44.192 243.209 44.312V46.232C242.897 46.16 242.417 46.112 241.937 46.112C240.497 46.112 239.321 46.928 238.889 48.536V54.248V56H236.873ZM253.973 41V38.48H256.013V54.152V56H253.973V54.368C253.181 55.664 251.621 56.36 249.965 56.36C246.677 56.36 244.301 53.936 244.301 50.192C244.301 46.472 246.677 44.024 249.965 44.024C251.669 44.024 253.205 44.72 253.973 45.992V41ZM246.437 50.192C246.437 52.688 247.997 54.44 250.373 54.44C251.981 54.44 253.349 53.576 253.973 51.944V48.464C253.349 46.808 252.005 45.944 250.373 45.944C247.997 45.944 246.437 47.744 246.437 50.192ZM265.111 56.36C261.535 56.36 259.063 54.176 259.063 50.24C259.063 46.616 261.103 44.024 264.703 44.024C268.255 44.024 270.247 46.256 270.223 50.36H261.199C261.295 53.144 263.263 54.344 265.879 54.344C267.631 54.344 269.311 53.648 270.031 52.352C270.031 54.848 268.207 56.36 265.111 56.36ZM261.223 48.848H268.063C268.063 47.168 266.935 45.56 264.679 45.56C262.663 45.56 261.391 46.856 261.223 48.848ZM272.935 56V54.272V46.616V44.384H274.807V46.592C275.335 45.056 276.559 44.144 278.191 44.144C278.623 44.144 279.079 44.192 279.271 44.312V46.232C278.959 46.16 278.479 46.112 277.999 46.112C276.559 46.112 275.383 46.928 274.951 48.536V54.248V56H272.935ZM291.821 56.36C289.541 56.36 288.293 54.968 288.293 52.712V46.256H285.797L290.333 41.384V44.384H295.229V46.256H290.333V52.088C290.333 53.576 291.221 54.368 292.637 54.368C293.837 54.368 294.821 53.816 295.421 52.784C295.421 55.088 293.981 56.36 291.821 56.36ZM302.906 56.36C299.378 56.36 296.786 53.792 296.786 50.168C296.786 46.544 299.378 44.024 302.906 44.024C306.41 44.024 309.002 46.544 309.002 50.168C309.002 53.792 306.41 56.36 302.906 56.36ZM298.922 50.168C298.922 52.688 300.554 54.44 302.906 54.44C305.234 54.44 306.89 52.688 306.89 50.168C306.89 47.672 305.258 45.944 302.906 45.944C300.506 45.944 298.922 47.672 298.922 50.168ZM125.047 76.384L125.935 78.664L128.623 85.552L131.335 78.592C131.839 77.296 131.839 77.296 132.175 76.384H134.431L133.471 78.736L129.679 88H127.543L123.775 78.76C123.247 77.464 123.247 77.464 122.791 76.384H125.047ZM141.697 88.36C138.121 88.36 135.649 86.176 135.649 82.24C135.649 78.616 137.689 76.024 141.289 76.024C144.841 76.024 146.833 78.256 146.809 82.36H137.785C137.881 85.144 139.849 86.344 142.465 86.344C144.217 86.344 145.897 85.648 146.617 84.352C146.617 86.848 144.793 88.36 141.697 88.36ZM137.809 80.848H144.649C144.649 79.168 143.521 77.56 141.265 77.56C139.249 77.56 137.977 78.856 137.809 80.848ZM149.521 88V86.272V78.616V76.384H151.393V78.592C151.921 77.056 153.145 76.144 154.777 76.144C155.209 76.144 155.665 76.192 155.857 76.312V78.232C155.545 78.16 155.065 78.112 154.585 78.112C153.145 78.112 151.969 78.928 151.537 80.536V86.248V88H149.521ZM157.885 88V86.272V78.904V76.384H159.901V86.2V88H157.885ZM157.405 72.496C157.405 71.656 158.053 71.008 158.917 71.008C159.757 71.008 160.381 71.656 160.381 72.496C160.381 73.336 159.757 73.96 158.917 73.96C158.053 73.96 157.405 73.336 157.405 72.496ZM162.324 78.256V76.384H164.508V74.464C164.508 71.824 165.9 70.24 168.372 70.24C169.188 70.24 170.004 70.432 170.652 70.888V72.808C170.172 72.352 169.428 72.064 168.612 72.064C167.172 72.064 166.524 72.904 166.524 74.368V76.384H169.932V78.256H166.524V86.2V88H164.508V86.272V78.256H162.324ZM172.67 92.32C173.006 91.576 173.294 91.024 173.654 90.256L175.43 86.632L171.614 78.352C171.158 77.32 171.158 77.32 170.726 76.384H173.006C173.486 77.44 173.486 77.44 173.918 78.424L176.606 84.28L179.174 78.52C179.726 77.248 179.726 77.248 180.086 76.384H182.342L181.382 78.472L175.022 92.32H172.67ZM190.686 78.904V76.384H192.702V78.04C193.47 76.72 195.03 76.024 196.71 76.024C199.998 76.024 202.374 78.448 202.374 82.192C202.374 85.912 199.998 88.36 196.71 88.36C195.006 88.36 193.446 87.664 192.702 86.344V90.52V92.32H190.686V90.592V78.904ZM192.702 83.872C193.302 85.552 194.646 86.44 196.302 86.44C198.678 86.44 200.262 84.664 200.262 82.192C200.262 79.696 198.678 77.944 196.302 77.944C194.67 77.944 193.302 78.808 192.702 80.488V83.872ZM213.178 78.904V76.384H215.194V86.152V88H213.178V86.56C212.458 87.688 211.234 88.36 209.506 88.36C206.794 88.36 205.186 86.584 205.186 83.944V78.904V76.384H207.202V83.296C207.202 85.216 208.306 86.392 210.082 86.392C211.618 86.392 212.578 85.696 213.178 84.28V78.904ZM219.251 73V70.48H221.267V78.136C222.035 76.768 223.619 76.024 225.347 76.024C228.635 76.024 230.987 78.448 230.987 82.192C230.987 85.912 228.635 88.36 225.347 88.36C223.571 88.36 222.011 87.616 221.267 86.248V88H219.251V73ZM221.267 83.704C221.843 85.504 223.235 86.44 224.939 86.44C227.315 86.44 228.875 84.664 228.875 82.192C228.875 79.696 227.315 77.944 224.939 77.944C223.259 77.944 221.843 78.88 221.267 80.656V83.704ZM234.084 88V86.272V73V70.48H236.1V86.2V88H234.084ZM240.152 88V86.272V78.904V76.384H242.168V86.2V88H240.152ZM239.672 72.496C239.672 71.656 240.32 71.008 241.184 71.008C242.024 71.008 242.648 71.656 242.648 72.496C242.648 73.336 242.024 73.96 241.184 73.96C240.32 73.96 239.672 73.336 239.672 72.496ZM251.043 88.36C247.587 88.36 245.235 85.96 245.235 82.24C245.235 78.568 247.707 76.024 251.331 76.024C253.035 76.024 254.379 76.456 255.315 77.32V79.768C254.571 78.688 253.299 77.896 251.475 77.896C249.027 77.896 247.371 79.576 247.371 82.12C247.371 84.616 249.027 86.296 251.643 86.296C253.491 86.296 254.835 85.528 255.579 84.016C255.579 86.872 253.947 88.36 251.043 88.36ZM272.438 88L266.534 81.952V86.2V88H264.518V86.272V73V70.48H266.534V81.664L269.702 78.616C270.998 77.392 271.022 77.392 272.078 76.384H274.766L272.366 78.616L269.078 81.688L273.71 86.416L275.222 88H272.438ZM281.931 88.36C278.355 88.36 275.883 86.176 275.883 82.24C275.883 78.616 277.923 76.024 281.523 76.024C285.075 76.024 287.067 78.256 287.043 82.36H278.019C278.115 85.144 280.083 86.344 282.699 86.344C284.451 86.344 286.131 85.648 286.851 84.352C286.851 86.848 285.027 88.36 281.931 88.36ZM278.043 80.848H284.883C284.883 79.168 283.755 77.56 281.499 77.56C279.483 77.56 278.211 78.856 278.043 80.848ZM289.92 92.32C290.256 91.576 290.544 91.024 290.904 90.256L292.68 86.632L288.864 78.352C288.408 77.32 288.408 77.32 287.976 76.384H290.256C290.736 77.44 290.736 77.44 291.168 78.424L293.856 84.28L296.424 78.52C296.976 77.248 296.976 77.248 297.336 76.384H299.592L298.632 78.472L292.272 92.32H289.92ZM304.918 88.36C303.238 88.36 301.87 87.808 300.886 86.752V84.4C301.798 85.768 303.406 86.584 304.966 86.584C306.238 86.584 306.91 86.008 306.91 85.048C306.91 84.208 306.526 83.776 305.638 83.392L303.478 82.48C301.918 81.808 301.126 80.824 301.126 79.312C301.126 77.416 302.782 76.024 305.086 76.024C306.406 76.024 307.606 76.408 308.494 77.152V79.336C307.798 78.424 306.406 77.752 305.134 77.752C303.982 77.752 303.238 78.328 303.238 79.168C303.238 79.96 303.694 80.416 304.606 80.776L306.838 81.736C308.254 82.336 309.022 83.344 309.022 84.88C309.022 86.968 307.318 88.36 304.918 88.36Z" fill="#4D6BFF"/>
<path d="M453 209L450.847 186.007L432.011 199.367L453 209ZM390.369 124.157L440.955 195.475L444.218 193.161L393.631 121.843L390.369 124.157Z" fill="#4D6BFF"/>
<path d="M707.48 24C707.984 22.728 707.984 22.728 708.44 21.624L714.2 7.2H716.336L722.12 21.672L723.056 24H720.728L719.912 21.816L718.904 19.2H711.584L710.576 21.864L709.784 24H707.48ZM712.328 17.28H718.184L715.256 9.576L712.328 17.28ZM725.445 24V22.272V9V6.48H727.461V22.2V24H725.445ZM731.512 24V22.272V14.904V12.384H733.528V22.2V24H731.512ZM731.032 8.496C731.032 7.656 731.68 7.008 732.544 7.008C733.384 7.008 734.008 7.656 734.008 8.496C734.008 9.336 733.384 9.96 732.544 9.96C731.68 9.96 731.032 9.336 731.032 8.496ZM742.404 24.36C738.948 24.36 736.596 21.96 736.596 18.24C736.596 14.568 739.068 12.024 742.692 12.024C744.396 12.024 745.74 12.456 746.676 13.32V15.768C745.932 14.688 744.66 13.896 742.836 13.896C740.388 13.896 738.732 15.576 738.732 18.12C738.732 20.616 740.388 22.296 743.004 22.296C744.852 22.296 746.196 21.528 746.94 20.016C746.94 22.872 745.308 24.36 742.404 24.36ZM754.875 24.36C751.299 24.36 748.827 22.176 748.827 18.24C748.827 14.616 750.867 12.024 754.467 12.024C758.019 12.024 760.011 14.256 759.987 18.36H750.963C751.059 21.144 753.027 22.344 755.643 22.344C757.395 22.344 759.075 21.648 759.795 20.352C759.795 22.848 757.971 24.36 754.875 24.36ZM750.987 16.848H757.827C757.827 15.168 756.699 13.56 754.443 13.56C752.427 13.56 751.155 14.856 750.987 16.848ZM772.89 28.68C770.01 28.68 767.754 27.552 767.754 25.68C767.754 24.48 768.546 23.592 769.986 23.016C769.434 22.656 769.002 22.056 769.002 21.312C769.002 20.52 769.506 19.896 770.202 19.56C768.978 18.864 768.21 17.64 768.21 16.104C768.21 13.68 770.034 12.024 772.674 12.024C773.394 12.024 774.066 12.144 774.642 12.384H778.554L778.53 14.256H776.73C776.994 14.808 777.138 15.432 777.138 16.104C777.138 18.504 775.29 20.136 772.65 20.136C772.266 20.136 771.906 20.112 771.546 20.04C771.186 20.16 770.946 20.4 770.946 20.736C770.946 21.24 771.306 21.48 772.218 21.648L775.458 22.128C777.45 22.416 778.674 23.304 778.674 24.96C778.674 27.192 776.418 28.68 772.89 28.68ZM769.794 25.248C769.794 26.472 771.354 27.12 773.25 27.12C775.29 27.12 776.682 26.448 776.682 25.272C776.682 24.432 776.058 24.12 774.882 23.952L771.546 23.472C770.706 23.76 769.794 24.384 769.794 25.248ZM770.154 16.104C770.154 17.592 771.186 18.576 772.65 18.576C774.138 18.576 775.194 17.568 775.194 16.104C775.194 14.592 774.138 13.608 772.65 13.608C771.186 13.608 770.154 14.592 770.154 16.104ZM786.484 24.36C782.908 24.36 780.436 22.176 780.436 18.24C780.436 14.616 782.476 12.024 786.076 12.024C789.628 12.024 791.62 14.256 791.596 18.36H782.572C782.668 21.144 784.636 22.344 787.252 22.344C789.004 22.344 790.684 21.648 791.404 20.352C791.404 22.848 789.58 24.36 786.484 24.36ZM782.596 16.848H789.436C789.436 15.168 788.308 13.56 786.052 13.56C784.036 13.56 782.764 14.856 782.596 16.848ZM802.492 24V22.272V17.088C802.492 15.168 801.364 13.992 799.516 13.992C797.908 13.992 796.924 14.712 796.324 16.176V22.2V24H794.308V22.272V14.904V12.384H796.324V13.968C797.044 12.744 798.292 12.024 800.068 12.024C802.852 12.024 804.532 13.8 804.532 16.44V22.272V24H802.492ZM813.431 24.36C809.855 24.36 807.383 22.176 807.383 18.24C807.383 14.616 809.423 12.024 813.023 12.024C816.575 12.024 818.567 14.256 818.543 18.36H809.519C809.615 21.144 811.583 22.344 814.199 22.344C815.951 22.344 817.631 21.648 818.351 20.352C818.351 22.848 816.527 24.36 813.431 24.36ZM809.543 16.848H816.383C816.383 15.168 815.255 13.56 812.999 13.56C810.983 13.56 809.711 14.856 809.543 16.848ZM821.255 24V22.272V14.616V12.384H823.127V14.592C823.655 13.056 824.879 12.144 826.511 12.144C826.943 12.144 827.399 12.192 827.591 12.312V14.232C827.279 14.16 826.799 14.112 826.319 14.112C824.879 14.112 823.703 14.928 823.271 16.536V22.248V24H821.255ZM838.645 24.36C837.469 24.36 836.749 23.784 836.509 22.728C835.765 23.712 834.397 24.36 832.741 24.36C830.413 24.36 828.853 23.04 828.853 21.072C828.853 19.176 830.125 17.856 832.597 17.448L836.389 16.8C836.389 14.88 835.357 13.872 833.341 13.872C831.325 13.872 830.077 14.688 829.141 16.296C829.141 13.584 830.893 12.024 833.773 12.024C836.773 12.024 838.405 13.608 838.405 16.584V21.288C838.405 22.104 838.837 22.584 839.581 22.584C840.109 22.584 840.517 22.368 840.805 22.008C840.805 23.64 839.773 24.36 838.645 24.36ZM830.965 20.88C830.965 21.912 831.877 22.632 833.293 22.632C834.661 22.632 835.813 21.96 836.389 20.928V18.24L833.245 18.816C831.637 19.128 830.965 19.848 830.965 20.88ZM846.516 24.36C844.236 24.36 842.988 22.968 842.988 20.712V14.256H840.492L845.028 9.384V12.384H849.924V14.256H845.028V20.088C845.028 21.576 845.916 22.368 847.332 22.368C848.532 22.368 849.516 21.816 850.116 20.784C850.116 23.088 848.676 24.36 846.516 24.36ZM857.53 24.36C853.954 24.36 851.482 22.176 851.482 18.24C851.482 14.616 853.522 12.024 857.122 12.024C860.674 12.024 862.666 14.256 862.642 18.36H853.618C853.714 21.144 855.682 22.344 858.298 22.344C860.05 22.344 861.73 21.648 862.45 20.352C862.45 22.848 860.626 24.36 857.53 24.36ZM853.642 16.848H860.482C860.482 15.168 859.354 13.56 857.098 13.56C855.082 13.56 853.81 14.856 853.642 16.848ZM868.707 24.36C867.027 24.36 865.659 23.808 864.675 22.752V20.4C865.587 21.768 867.195 22.584 868.755 22.584C870.027 22.584 870.699 22.008 870.699 21.048C870.699 20.208 870.315 19.776 869.427 19.392L867.267 18.48C865.707 17.808 864.915 16.824 864.915 15.312C864.915 13.416 866.571 12.024 868.875 12.024C870.195 12.024 871.395 12.408 872.283 13.152V15.336C871.587 14.424 870.195 13.752 868.923 13.752C867.771 13.752 867.027 14.328 867.027 15.168C867.027 15.96 867.483 16.416 868.395 16.776L870.627 17.736C872.043 18.336 872.811 19.344 872.811 20.88C872.811 22.968 871.107 24.36 868.707 24.36ZM882.208 24V22.104V9V7.2H887.752C892.456 7.2 896.296 10.176 896.296 15.6C896.296 21.024 892.456 24 887.752 24H882.208ZM884.32 22.104H887.704C891.016 22.104 894.088 19.968 894.088 15.6C894.088 11.232 891.016 9.096 887.704 9.096H884.32V22.104ZM900.065 24V22.104V9V7.2H902.177V9.096V22.2V24H900.065ZM906.999 24V22.104V9V7.2H912.543C917.247 7.2 921.087 10.176 921.087 15.6C921.087 21.024 917.247 24 912.543 24H906.999ZM909.111 22.104H912.495C915.807 22.104 918.879 19.968 918.879 15.6C918.879 11.232 915.807 9.096 912.495 9.096H909.111V22.104ZM927.568 24.36C925.888 24.36 924.52 23.808 923.536 22.752V20.4C924.448 21.768 926.056 22.584 927.616 22.584C928.888 22.584 929.56 22.008 929.56 21.048C929.56 20.208 929.176 19.776 928.288 19.392L926.128 18.48C924.568 17.808 923.776 16.824 923.776 15.312C923.776 13.416 925.432 12.024 927.736 12.024C929.056 12.024 930.256 12.408 931.144 13.152V15.336C930.448 14.424 929.056 13.752 927.784 13.752C926.632 13.752 925.888 14.328 925.888 15.168C925.888 15.96 926.344 16.416 927.256 16.776L929.488 17.736C930.904 18.336 931.672 19.344 931.672 20.88C931.672 22.968 929.968 24.36 927.568 24.36ZM941.333 12.384C941.741 13.608 941.741 13.608 942.053 14.64L944.357 21.624L947.621 12.384H949.613L952.829 21.552L955.109 14.712L955.853 12.384H958.061C957.653 13.536 957.653 13.536 957.221 14.712L953.885 24H951.869L948.605 15L945.341 24H943.325L939.989 14.784C939.533 13.512 939.533 13.512 939.149 12.384H941.333ZM960.464 24V22.272V14.904V12.384H962.48V22.2V24H960.464ZM959.984 8.496C959.984 7.656 960.632 7.008 961.496 7.008C962.336 7.008 962.96 7.656 962.96 8.496C962.96 9.336 962.336 9.96 961.496 9.96C960.632 9.96 959.984 9.336 959.984 8.496ZM970.564 24.36C968.284 24.36 967.036 22.968 967.036 20.712V14.256H964.54L969.076 9.384V12.384H973.972V14.256H969.076V20.088C969.076 21.576 969.964 22.368 971.38 22.368C972.58 22.368 973.564 21.816 974.164 20.784C974.164 23.088 972.724 24.36 970.564 24.36ZM984.697 24V22.272V17.088C984.697 15.168 983.569 13.992 981.721 13.992C980.113 13.992 979.129 14.712 978.529 16.176V22.2V24H976.513V22.272V9V6.48H978.529V13.968C979.249 12.744 980.497 12.024 982.273 12.024C985.057 12.024 986.737 13.8 986.737 16.44V22.272V24H984.697ZM709.088 46.904V44.384H711.104V46.04C711.872 44.72 713.432 44.024 715.112 44.024C718.4 44.024 720.776 46.448 720.776 50.192C720.776 53.912 718.4 56.36 715.112 56.36C713.408 56.36 711.848 55.664 711.104 54.344V58.52V60.32H709.088V58.592V46.904ZM711.104 51.872C711.704 53.552 713.048 54.44 714.704 54.44C717.08 54.44 718.664 52.664 718.664 50.192C718.664 47.696 717.08 45.944 714.704 45.944C713.072 45.944 711.704 46.808 711.104 48.488V51.872ZM731.58 46.904V44.384H733.596V54.152V56H731.58V54.56C730.86 55.688 729.636 56.36 727.908 56.36C725.196 56.36 723.588 54.584 723.588 51.944V46.904V44.384H725.604V51.296C725.604 53.216 726.708 54.392 728.484 54.392C730.02 54.392 730.98 53.696 731.58 52.28V46.904ZM737.653 41V38.48H739.669V46.136C740.437 44.768 742.021 44.024 743.749 44.024C747.037 44.024 749.389 46.448 749.389 50.192C749.389 53.912 747.037 56.36 743.749 56.36C741.973 56.36 740.413 55.616 739.669 54.248V56H737.653V41ZM739.669 51.704C740.245 53.504 741.637 54.44 743.341 54.44C745.717 54.44 747.277 52.664 747.277 50.192C747.277 47.696 745.717 45.944 743.341 45.944C741.661 45.944 740.245 46.88 739.669 48.656V51.704ZM752.486 56V54.272V41V38.48H754.502V54.2V56H752.486ZM758.553 56V54.272V46.904V44.384H760.569V54.2V56H758.553ZM758.073 40.496C758.073 39.656 758.721 39.008 759.585 39.008C760.425 39.008 761.049 39.656 761.049 40.496C761.049 41.336 760.425 41.96 759.585 41.96C758.721 41.96 758.073 41.336 758.073 40.496ZM769.445 56.36C765.989 56.36 763.637 53.96 763.637 50.24C763.637 46.568 766.109 44.024 769.733 44.024C771.437 44.024 772.781 44.456 773.717 45.32V47.768C772.973 46.688 771.701 45.896 769.877 45.896C767.429 45.896 765.773 47.576 765.773 50.12C765.773 52.616 767.429 54.296 770.045 54.296C771.893 54.296 773.237 53.528 773.981 52.016C773.981 54.872 772.349 56.36 769.445 56.36ZM790.84 56L784.936 49.952V54.2V56H782.92V54.272V41V38.48H784.936V49.664L788.104 46.616C789.4 45.392 789.424 45.392 790.48 44.384H793.168L790.768 46.616L787.48 49.688L792.112 54.416L793.624 56H790.84ZM800.333 56.36C796.757 56.36 794.285 54.176 794.285 50.24C794.285 46.616 796.325 44.024 799.925 44.024C803.477 44.024 805.469 46.256 805.445 50.36H796.421C796.517 53.144 798.485 54.344 801.101 54.344C802.853 54.344 804.533 53.648 805.253 52.352C805.253 54.848 803.429 56.36 800.333 56.36ZM796.445 48.848H803.285C803.285 47.168 802.157 45.56 799.901 45.56C797.885 45.56 796.613 46.856 796.445 48.848ZM808.322 60.32C808.658 59.576 808.946 59.024 809.306 58.256L811.082 54.632L807.266 46.352C806.81 45.32 806.81 45.32 806.378 44.384H808.658C809.138 45.44 809.138 45.44 809.57 46.424L812.258 52.28L814.826 46.52C815.378 45.248 815.378 45.248 815.738 44.384H817.994L817.034 46.472L810.674 60.32H808.322ZM823.32 56.36C821.64 56.36 820.272 55.808 819.288 54.752V52.4C820.2 53.768 821.808 54.584 823.368 54.584C824.64 54.584 825.312 54.008 825.312 53.048C825.312 52.208 824.928 51.776 824.04 51.392L821.88 50.48C820.32 49.808 819.528 48.824 819.528 47.312C819.528 45.416 821.184 44.024 823.488 44.024C824.808 44.024 826.008 44.408 826.896 45.152V47.336C826.2 46.424 824.808 45.752 823.536 45.752C822.384 45.752 821.64 46.328 821.64 47.168C821.64 47.96 822.096 48.416 823.008 48.776L825.24 49.736C826.656 50.336 827.424 51.344 827.424 52.88C827.424 54.968 825.72 56.36 823.32 56.36ZM845.533 56.36C844.357 56.36 843.637 55.784 843.397 54.728C842.653 55.712 841.285 56.36 839.629 56.36C837.301 56.36 835.741 55.04 835.741 53.072C835.741 51.176 837.013 49.856 839.485 49.448L843.277 48.8C843.277 46.88 842.245 45.872 840.229 45.872C838.213 45.872 836.965 46.688 836.029 48.296C836.029 45.584 837.781 44.024 840.661 44.024C843.661 44.024 845.293 45.608 845.293 48.584V53.288C845.293 54.104 845.725 54.584 846.469 54.584C846.997 54.584 847.405 54.368 847.693 54.008C847.693 55.64 846.661 56.36 845.533 56.36ZM837.853 52.88C837.853 53.912 838.765 54.632 840.181 54.632C841.549 54.632 842.701 53.96 843.277 52.928V50.24L840.133 50.816C838.525 51.128 837.853 51.848 837.853 52.88ZM857.931 56V54.272V49.088C857.931 47.168 856.803 45.992 854.955 45.992C853.347 45.992 852.363 46.712 851.763 48.176V54.2V56H849.747V54.272V46.904V44.384H851.763V45.968C852.483 44.744 853.731 44.024 855.507 44.024C858.291 44.024 859.971 45.8 859.971 48.44V54.272V56H857.931ZM872.494 41V38.48H874.534V54.152V56H872.494V54.368C871.702 55.664 870.142 56.36 868.486 56.36C865.198 56.36 862.822 53.936 862.822 50.192C862.822 46.472 865.198 44.024 868.486 44.024C870.19 44.024 871.726 44.72 872.494 45.992V41ZM864.958 50.192C864.958 52.688 866.518 54.44 868.894 54.44C870.502 54.44 871.87 53.576 872.494 51.944V48.464C871.87 46.808 870.526 45.944 868.894 45.944C866.518 45.944 864.958 47.744 864.958 50.192ZM884.637 56V54.272V46.616V44.384H886.509V46.592C887.037 45.056 888.261 44.144 889.893 44.144C890.325 44.144 890.781 44.192 890.973 44.312V46.232C890.661 46.16 890.181 46.112 889.701 46.112C888.261 46.112 887.085 46.928 886.653 48.536V54.248V56H884.637ZM898.159 56.36C894.583 56.36 892.111 54.176 892.111 50.24C892.111 46.616 894.151 44.024 897.751 44.024C901.303 44.024 903.295 46.256 903.271 50.36H894.247C894.343 53.144 896.311 54.344 898.927 54.344C900.679 54.344 902.359 53.648 903.079 52.352C903.079 54.848 901.255 56.36 898.159 56.36ZM894.271 48.848H901.111C901.111 47.168 899.983 45.56 897.727 45.56C895.711 45.56 894.439 46.856 894.271 48.848ZM910.317 60.68C907.437 60.68 905.181 59.552 905.181 57.68C905.181 56.48 905.973 55.592 907.413 55.016C906.861 54.656 906.429 54.056 906.429 53.312C906.429 52.52 906.933 51.896 907.629 51.56C906.405 50.864 905.637 49.64 905.637 48.104C905.637 45.68 907.461 44.024 910.101 44.024C910.821 44.024 911.493 44.144 912.069 44.384H915.981L915.957 46.256H914.157C914.421 46.808 914.565 47.432 914.565 48.104C914.565 50.504 912.717 52.136 910.077 52.136C909.693 52.136 909.333 52.112 908.973 52.04C908.613 52.16 908.373 52.4 908.373 52.736C908.373 53.24 908.733 53.48 909.645 53.648L912.885 54.128C914.877 54.416 916.101 55.304 916.101 56.96C916.101 59.192 913.845 60.68 910.317 60.68ZM907.221 57.248C907.221 58.472 908.781 59.12 910.677 59.12C912.717 59.12 914.109 58.448 914.109 57.272C914.109 56.432 913.485 56.12 912.309 55.952L908.973 55.472C908.133 55.76 907.221 56.384 907.221 57.248ZM907.581 48.104C907.581 49.592 908.613 50.576 910.077 50.576C911.565 50.576 912.621 49.568 912.621 48.104C912.621 46.592 911.565 45.608 910.077 45.608C908.613 45.608 907.581 46.592 907.581 48.104ZM918.706 56V54.272V46.904V44.384H920.722V54.2V56H918.706ZM918.226 40.496C918.226 39.656 918.874 39.008 919.738 39.008C920.578 39.008 921.202 39.656 921.202 40.496C921.202 41.336 920.578 41.96 919.738 41.96C918.874 41.96 918.226 41.336 918.226 40.496ZM927.753 56.36C926.073 56.36 924.705 55.808 923.721 54.752V52.4C924.633 53.768 926.241 54.584 927.801 54.584C929.073 54.584 929.745 54.008 929.745 53.048C929.745 52.208 929.361 51.776 928.473 51.392L926.313 50.48C924.753 49.808 923.961 48.824 923.961 47.312C923.961 45.416 925.617 44.024 927.921 44.024C929.241 44.024 930.441 44.408 931.329 45.152V47.336C930.633 46.424 929.241 45.752 927.969 45.752C926.817 45.752 926.073 46.328 926.073 47.168C926.073 47.96 926.529 48.416 927.441 48.776L929.673 49.736C931.089 50.336 931.857 51.344 931.857 52.88C931.857 54.968 930.153 56.36 927.753 56.36ZM938.858 56.36C936.578 56.36 935.33 54.968 935.33 52.712V46.256H932.834L937.37 41.384V44.384H942.266V46.256H937.37V52.088C937.37 53.576 938.258 54.368 939.674 54.368C940.874 54.368 941.858 53.816 942.458 52.784C942.458 55.088 941.018 56.36 938.858 56.36ZM949.871 56.36C946.295 56.36 943.823 54.176 943.823 50.24C943.823 46.616 945.863 44.024 949.463 44.024C953.015 44.024 955.007 46.256 954.983 50.36H945.959C946.055 53.144 948.023 54.344 950.639 54.344C952.391 54.344 954.071 53.648 954.791 52.352C954.791 54.848 952.967 56.36 949.871 56.36ZM945.983 48.848H952.823C952.823 47.168 951.695 45.56 949.439 45.56C947.423 45.56 946.151 46.856 945.983 48.848ZM957.695 56V54.272V46.616V44.384H959.567V46.592C960.095 45.056 961.319 44.144 962.951 44.144C963.383 44.144 963.839 44.192 964.031 44.312V46.232C963.719 46.16 963.239 46.112 962.759 46.112C961.319 46.112 960.143 46.928 959.711 48.536V54.248V56H957.695ZM969.343 56.36C967.663 56.36 966.295 55.808 965.311 54.752V52.4C966.223 53.768 967.831 54.584 969.391 54.584C970.663 54.584 971.335 54.008 971.335 53.048C971.335 52.208 970.951 51.776 970.063 51.392L967.903 50.48C966.343 49.808 965.551 48.824 965.551 47.312C965.551 45.416 967.207 44.024 969.511 44.024C970.831 44.024 972.031 44.408 972.919 45.152V47.336C972.223 46.424 970.831 45.752 969.559 45.752C968.407 45.752 967.663 46.328 967.663 47.168C967.663 47.96 968.119 48.416 969.031 48.776L971.263 49.736C972.679 50.336 973.447 51.344 973.447 52.88C973.447 54.968 971.743 56.36 969.343 56.36ZM713.144 88.36C710.864 88.36 709.616 86.968 709.616 84.712V78.256H707.12L711.656 73.384V76.384H716.552V78.256H711.656V84.088C711.656 85.576 712.544 86.368 713.96 86.368C715.16 86.368 716.144 85.816 716.744 84.784C716.744 87.088 715.304 88.36 713.144 88.36ZM727.277 88V86.272V81.088C727.277 79.168 726.149 77.992 724.301 77.992C722.693 77.992 721.709 78.712 721.109 80.176V86.2V88H719.093V86.272V73V70.48H721.109V77.968C721.829 76.744 723.077 76.024 724.853 76.024C727.637 76.024 729.317 77.8 729.317 80.44V86.272V88H727.277ZM738.217 88.36C734.641 88.36 732.169 86.176 732.169 82.24C732.169 78.616 734.209 76.024 737.809 76.024C741.361 76.024 743.353 78.256 743.329 82.36H734.305C734.401 85.144 736.369 86.344 738.985 86.344C740.737 86.344 742.417 85.648 743.137 84.352C743.137 86.848 741.313 88.36 738.217 88.36ZM734.329 80.848H741.169C741.169 79.168 740.041 77.56 737.785 77.56C735.769 77.56 734.497 78.856 734.329 80.848ZM746.04 88V86.272V78.904V76.384H748.056V77.776C748.824 76.672 750.024 76.024 751.536 76.024C753.312 76.024 754.609 76.768 755.304 78.04C756.001 76.984 757.272 76.024 759.193 76.024C762.001 76.024 763.681 77.8 763.681 80.44V86.344V88H761.665V86.272V81.04C761.665 79.168 760.584 77.992 758.808 77.992C757.321 77.992 756.433 78.784 755.88 80.104V80.44V86.344V88H753.841V86.272V81.04C753.841 79.168 752.76 77.992 751.008 77.992C749.616 77.992 748.752 78.688 748.056 79.96V86.2V88H746.04ZM773.597 88V86.272V78.904V76.384H775.613V86.2V88H773.597ZM773.117 72.496C773.117 71.656 773.765 71.008 774.629 71.008C775.469 71.008 776.093 71.656 776.093 72.496C776.093 73.336 775.469 73.96 774.629 73.96C773.765 73.96 773.117 73.336 773.117 72.496ZM787.849 88V86.272V81.088C787.849 79.168 786.721 77.992 784.873 77.992C783.265 77.992 782.281 78.712 781.681 80.176V86.2V88H779.665V86.272V78.904V76.384H781.681V77.968C782.401 76.744 783.649 76.024 785.425 76.024C788.209 76.024 789.889 77.8 789.889 80.44V86.272V88H787.849ZM803.848 88.36C801.568 88.36 800.32 86.968 800.32 84.712V78.256H797.824L802.36 73.384V76.384H807.256V78.256H802.36V84.088C802.36 85.576 803.248 86.368 804.664 86.368C805.864 86.368 806.848 85.816 807.448 84.784C807.448 87.088 806.008 88.36 803.848 88.36ZM817.981 88V86.272V81.088C817.981 79.168 816.853 77.992 815.005 77.992C813.397 77.992 812.413 78.712 811.813 80.176V86.2V88H809.797V86.272V73V70.48H811.813V77.968C812.533 76.744 813.781 76.024 815.557 76.024C818.341 76.024 820.021 77.8 820.021 80.44V86.272V88H817.981ZM828.921 88.36C825.345 88.36 822.873 86.176 822.873 82.24C822.873 78.616 824.913 76.024 828.513 76.024C832.065 76.024 834.057 78.256 834.033 82.36H825.009C825.105 85.144 827.073 86.344 829.689 86.344C831.441 86.344 833.121 85.648 833.841 84.352C833.841 86.848 832.017 88.36 828.921 88.36ZM825.033 80.848H831.873C831.873 79.168 830.745 77.56 828.489 77.56C826.473 77.56 825.201 78.856 825.033 80.848ZM851.184 88V86.272V81.088C851.184 79.168 850.056 77.992 848.208 77.992C846.6 77.992 845.616 78.712 845.016 80.176V86.2V88H843V86.272V78.904V76.384H845.016V77.968C845.736 76.744 846.984 76.024 848.76 76.024C851.544 76.024 853.224 77.8 853.224 80.44V86.272V88H851.184ZM862.123 88.36C858.547 88.36 856.075 86.176 856.075 82.24C856.075 78.616 858.115 76.024 861.715 76.024C865.267 76.024 867.259 78.256 867.235 82.36H858.211C858.307 85.144 860.275 86.344 862.891 86.344C864.643 86.344 866.323 85.648 867.043 84.352C867.043 86.848 865.219 88.36 862.123 88.36ZM858.235 80.848H865.075C865.075 79.168 863.947 77.56 861.691 77.56C859.675 77.56 858.403 78.856 858.235 80.848ZM874.191 88.36C871.911 88.36 870.663 86.968 870.663 84.712V78.256H868.167L872.703 73.384V76.384H877.599V78.256H872.703V84.088C872.703 85.576 873.591 86.368 875.007 86.368C876.207 86.368 877.191 85.816 877.791 84.784C877.791 87.088 876.351 88.36 874.191 88.36ZM880.788 76.384C881.196 77.608 881.196 77.608 881.508 78.64L883.812 85.624L887.076 76.384H889.068L892.284 85.552L894.564 78.712L895.308 76.384H897.516C897.108 77.536 897.108 77.536 896.676 78.712L893.34 88H891.324L888.06 79L884.796 88H882.78L879.444 78.784C878.988 77.512 878.988 77.512 878.604 76.384H880.788ZM904.937 88.36C901.409 88.36 898.817 85.792 898.817 82.168C898.817 78.544 901.409 76.024 904.937 76.024C908.441 76.024 911.033 78.544 911.033 82.168C911.033 85.792 908.441 88.36 904.937 88.36ZM900.953 82.168C900.953 84.688 902.585 86.44 904.937 86.44C907.265 86.44 908.921 84.688 908.921 82.168C908.921 79.672 907.289 77.944 904.937 77.944C902.537 77.944 900.953 79.672 900.953 82.168ZM914.118 88V86.272V78.616V76.384H915.99V78.592C916.518 77.056 917.742 76.144 919.374 76.144C919.806 76.144 920.262 76.192 920.454 76.312V78.232C920.142 78.16 919.662 78.112 919.182 78.112C917.742 78.112 916.566 78.928 916.134 80.536V86.248V88H914.118ZM930.403 88L924.499 81.952V86.2V88H922.483V86.272V73V70.48H924.499V81.664L927.667 78.616C928.963 77.392 928.987 77.392 930.043 76.384H932.731L930.331 78.616L927.043 81.688L931.675 86.416L933.187 88H930.403Z" fill="#4D6BFF"/>
<path d="M553 209L573.503 198.372L554.048 185.93L553 209ZM564.383 194.913L609.685 124.078L606.315 121.922L561.013 192.758L564.383 194.913Z" fill="#4D6BFF"/>
<path d="M433.398 433V431.104V418V416.2H438.942C443.646 416.2 447.486 419.176 447.486 424.6C447.486 430.024 443.646 433 438.942 433H433.398ZM435.51 431.104H438.894C442.206 431.104 445.278 428.968 445.278 424.6C445.278 420.232 442.206 418.096 438.894 418.096H435.51V431.104ZM451.254 433V431.104V418V416.2H453.366V418.096V431.2V433H451.254ZM458.189 433V431.104V418V416.2H463.733C468.437 416.2 472.277 419.176 472.277 424.6C472.277 430.024 468.437 433 463.733 433H458.189ZM460.301 431.104H463.685C466.997 431.104 470.069 428.968 470.069 424.6C470.069 420.232 466.997 418.096 463.685 418.096H460.301V431.104ZM482.113 433V431.104V418V416.2H487.873C491.257 416.2 493.321 417.976 493.321 420.856C493.321 423.328 491.785 424.984 489.217 425.416L493.657 430.864C494.545 431.92 494.545 431.92 495.409 433H492.769L486.745 425.512H484.225V431.152V433H482.113ZM484.225 423.688H487.657C489.961 423.688 491.137 422.656 491.137 420.856C491.137 419.08 489.961 418.048 487.657 418.048H484.225V423.688ZM502.376 433.36C498.8 433.36 496.328 431.176 496.328 427.24C496.328 423.616 498.368 421.024 501.968 421.024C505.52 421.024 507.512 423.256 507.488 427.36H498.464C498.56 430.144 500.528 431.344 503.144 431.344C504.896 431.344 506.576 430.648 507.296 429.352C507.296 431.848 505.472 433.36 502.376 433.36ZM498.488 425.848H505.328C505.328 424.168 504.2 422.56 501.944 422.56C499.928 422.56 498.656 423.856 498.488 425.848ZM514.534 437.68C511.654 437.68 509.398 436.552 509.398 434.68C509.398 433.48 510.19 432.592 511.63 432.016C511.078 431.656 510.646 431.056 510.646 430.312C510.646 429.52 511.15 428.896 511.846 428.56C510.622 427.864 509.854 426.64 509.854 425.104C509.854 422.68 511.678 421.024 514.318 421.024C515.038 421.024 515.71 421.144 516.286 421.384H520.198L520.174 423.256H518.374C518.638 423.808 518.782 424.432 518.782 425.104C518.782 427.504 516.934 429.136 514.294 429.136C513.91 429.136 513.55 429.112 513.19 429.04C512.83 429.16 512.59 429.4 512.59 429.736C512.59 430.24 512.95 430.48 513.862 430.648L517.102 431.128C519.094 431.416 520.318 432.304 520.318 433.96C520.318 436.192 518.062 437.68 514.534 437.68ZM511.438 434.248C511.438 435.472 512.998 436.12 514.894 436.12C516.934 436.12 518.326 435.448 518.326 434.272C518.326 433.432 517.702 433.12 516.526 432.952L513.19 432.472C512.35 432.76 511.438 433.384 511.438 434.248ZM511.798 425.104C511.798 426.592 512.83 427.576 514.294 427.576C515.782 427.576 516.838 426.568 516.838 425.104C516.838 423.592 515.782 422.608 514.294 422.608C512.83 422.608 511.798 423.592 511.798 425.104ZM522.924 433V431.272V423.904V421.384H524.94V431.2V433H522.924ZM522.444 417.496C522.444 416.656 523.092 416.008 523.956 416.008C524.796 416.008 525.42 416.656 525.42 417.496C525.42 418.336 524.796 418.96 523.956 418.96C523.092 418.96 522.444 418.336 522.444 417.496ZM531.97 433.36C530.29 433.36 528.922 432.808 527.938 431.752V429.4C528.85 430.768 530.458 431.584 532.018 431.584C533.29 431.584 533.962 431.008 533.962 430.048C533.962 429.208 533.578 428.776 532.69 428.392L530.53 427.48C528.97 426.808 528.178 425.824 528.178 424.312C528.178 422.416 529.834 421.024 532.138 421.024C533.458 421.024 534.658 421.408 535.546 422.152V424.336C534.85 423.424 533.458 422.752 532.186 422.752C531.034 422.752 530.29 423.328 530.29 424.168C530.29 424.96 530.746 425.416 531.658 425.776L533.89 426.736C535.306 427.336 536.074 428.344 536.074 429.88C536.074 431.968 534.37 433.36 531.97 433.36ZM543.076 433.36C540.796 433.36 539.548 431.968 539.548 429.712V423.256H537.052L541.588 418.384V421.384H546.484V423.256H541.588V429.088C541.588 430.576 542.476 431.368 543.892 431.368C545.092 431.368 546.076 430.816 546.676 429.784C546.676 432.088 545.236 433.36 543.076 433.36ZM549.025 433V431.272V423.616V421.384H550.897V423.592C551.425 422.056 552.649 421.144 554.281 421.144C554.713 421.144 555.169 421.192 555.361 421.312V423.232C555.049 423.16 554.569 423.112 554.089 423.112C552.649 423.112 551.473 423.928 551.041 425.536V431.248V433H549.025ZM558.093 437.32C558.429 436.576 558.717 436.024 559.077 435.256L560.853 431.632L557.037 423.352C556.581 422.32 556.581 422.32 556.149 421.384H558.429C558.909 422.44 558.909 422.44 559.341 423.424L562.029 429.28L564.597 423.52C565.149 422.248 565.149 422.248 565.509 421.384H567.765L566.805 423.472L560.445 437.32H558.093Z" fill="#4D6BFF"/>
<path fill-rule="evenodd" clip-rule="evenodd" d="M400.156 53.9202C411.619 50.6045 420 40.031 420 27.5C420 12.3122 407.688 0 392.5 0C377.312 0 365 12.3122 365 27.5C365 39.6258 372.848 49.9186 383.742 53.576C374.231 55.0956 365.37 59.5762 358.473 66.4731C350.556 74.3899 345.823 84.8954 345.098 96C345.033 96.9957 345 97.9961 345 99H348C348 87.5957 352.53 76.6585 360.594 68.5944C368.658 60.5303 379.596 56 391 56C402.404 56 413.342 60.5303 421.406 68.5944C429.47 76.6585 434 87.5957 434 99H437C437 97.9961 436.967 96.9957 436.902 96C436.177 84.8954 431.444 74.3899 423.527 66.4731C417.091 60.0372 408.944 55.7054 400.156 53.9202ZM417 27.5C417 41.031 406.031 52 392.5 52C378.969 52 368 41.031 368 27.5C368 13.969 378.969 3 392.5 3C406.031 3 417 13.969 417 27.5Z" fill="#4D6BFF"/>
<path fill-rule="evenodd" clip-rule="evenodd" d="M640.156 53.9202C651.619 50.6045 660 40.031 660 27.5C660 12.3122 647.688 0 632.5 0C617.312 0 605 12.3122 605 27.5C605 39.6258 612.848 49.9186 623.742 53.576C614.231 55.0956 605.37 59.5762 598.473 66.4731C590.556 74.3899 585.823 84.8954 585.098 96C585.033 96.9957 585 97.9961 585 99H588C588 87.5957 592.53 76.6585 600.594 68.5944C608.658 60.5303 619.596 56 631 56C642.404 56 653.342 60.5303 661.406 68.5944C669.47 76.6585 674 87.5957 674 99H677C677 97.9961 676.967 96.9957 676.902 96C676.177 84.8954 671.444 74.3899 663.527 66.4731C657.091 60.0372 648.944 55.7054 640.156 53.9202ZM657 27.5C657 41.031 646.031 52 632.5 52C618.969 52 608 41.031 608 27.5C608 13.969 618.969 3 632.5 3C646.031 3 657 13.969 657 27.5Z" fill="#4D6BFF"/>
<path fill-rule="evenodd" clip-rule="evenodd" d="M449.301 260C449.301 258.1 449.405 256.224 449.608 254.378C449.076 254.222 448.54 254.069 448 253.921L449.137 250.449C449.473 250.541 449.808 250.635 450.142 250.731C454.502 226.99 475.306 209 500.312 209C528.485 209 551.324 231.833 551.324 260C551.324 261.918 551.218 263.811 551.011 265.673L551.047 265.675C551.186 265.681 551.253 265.676 551.263 265.675C551.265 265.675 551.265 265.674 551.263 265.675C551.255 265.676 551.201 265.684 551.117 265.711C551.088 265.721 551.049 265.734 551.002 265.754C550.945 266.269 550.879 266.782 550.806 267.292L553.978 266.892C554.095 267.661 553.734 268.356 553.137 268.781C552.671 269.113 552.161 269.216 551.869 269.257C551.44 269.317 550.963 269.311 550.483 269.27C546.122 293.011 525.319 311 500.312 311C472.14 311 449.301 288.167 449.301 260ZM533.528 293.555C526.944 300.071 518.451 304.663 508.962 306.419C508.945 306.131 508.909 305.837 508.863 305.551C508.65 304.23 508.124 302.415 507.29 300.274C506.202 297.475 504.552 294.023 502.27 290.23C507.524 287.305 512.815 283.593 517.856 279.178L533.528 293.555ZM517.867 274.064L503.127 260.543L514.071 250.347C518.09 253.816 522.196 256.748 526.143 259.189C527.165 259.82 528.176 260.42 529.174 260.987C526.137 265.379 522.349 269.814 517.867 274.064ZM520.66 276.625C525.359 272.175 529.357 267.499 532.575 262.832C536.925 265.077 540.887 266.689 544.072 267.739C545.033 268.056 545.933 268.325 546.761 268.546C545.224 276.95 541.461 284.577 536.105 290.794L520.66 276.625ZM534.604 259.723C538.726 261.844 542.452 263.356 545.404 264.329C546.077 264.551 546.703 264.743 547.28 264.907C547.447 263.294 547.532 261.657 547.532 260C547.532 251.908 545.496 244.291 541.907 237.634C542.054 244.044 539.488 251.795 534.604 259.723ZM535.663 230.231L516.841 247.766C520.668 251.062 524.58 253.854 528.349 256.184C529.311 256.78 530.264 257.345 531.203 257.879C533.437 254.245 535.139 250.679 536.276 247.315C538.876 239.629 538.325 233.801 535.663 230.231ZM532.841 227.698L514.024 245.229C510.034 241.474 506.202 237.142 502.801 232.183C506.748 230.082 510.627 228.472 514.292 227.386C522.583 224.927 528.912 225.341 532.841 227.698ZM528.971 222.477C521.307 221.116 511.163 223.536 500.777 229.072C497.865 224.346 495.351 219.097 493.436 213.287C495.681 212.96 497.977 212.79 500.312 212.79C511.09 212.79 521.024 216.4 528.971 222.477ZM497.411 230.971C494.314 225.966 491.642 220.396 489.617 214.22L492.44 213.444C482.373 215.133 473.387 220.006 466.552 226.993L482.751 241.852C487.476 237.58 492.443 233.929 497.411 230.971ZM479.992 244.446L464.02 229.795C458.847 236.002 455.236 243.556 453.793 251.854C459.143 253.619 464.041 255.764 468.511 258.171C471.59 253.545 475.443 248.893 479.992 244.446ZM471.871 260.075C474.777 255.706 478.434 251.274 482.785 247.009L497.563 260.564L486.442 270.925C482.262 267.089 477.425 263.384 471.871 260.075ZM466.536 261.313C462.495 259.135 458.09 257.182 453.299 255.549C453.162 257.014 453.092 258.499 453.092 260C453.092 269.035 455.631 277.476 460.033 284.652C459.155 278.11 461.487 269.844 466.536 261.313ZM466.149 289.83C463.446 286.266 462.874 280.415 465.488 272.685C466.511 269.662 467.989 266.476 469.898 263.225C475.139 266.364 479.71 269.873 483.669 273.508L466.149 289.83ZM471.208 297.178C479.228 303.463 489.332 307.21 500.312 307.21C502.489 307.21 504.632 307.062 506.731 306.777L506.884 305.763C506.232 305.681 505.628 305.952 505.284 306.358C505.151 306.515 505.087 306.654 505.059 306.728C505.029 306.805 505.02 306.855 505.019 306.862C505.02 306.852 505.026 306.791 505.02 306.664C505.013 306.521 504.994 306.329 504.954 306.084C504.794 305.085 504.356 303.516 503.569 301.495C502.557 298.893 501.004 295.636 498.84 292.031C491.794 295.507 484.933 297.515 478.963 297.846L505.019 306.862C505.019 306.863 505.019 306.863 505.019 306.862L478.963 297.846C476.156 298.001 473.547 297.786 471.208 297.178ZM496.855 288.896C493.637 290.477 490.483 291.722 487.473 292.614C479.23 295.059 472.927 294.664 468.992 292.343L486.397 276.128C489.635 279.379 492.405 282.685 494.745 285.877C495.493 286.898 496.196 287.906 496.855 288.896ZM500.288 287.096C499.581 286.032 498.827 284.949 498.025 283.854C495.554 280.481 492.617 276.983 489.174 273.542L500.355 263.125L515.063 276.617C510.246 280.827 505.227 284.34 500.288 287.096ZM485.543 244.413C490.053 240.337 494.764 236.876 499.438 234.082C503.02 239.308 507.055 243.866 511.253 247.81L500.335 257.982L485.543 244.413Z" fill="#4D6BFF"/>
<rect x="312.5" y="331.494" width="50.0057" height="50.0057" rx="3.5" stroke="#4D6BFF" stroke-width="3"/>
<rect x="393.773" y="331.494" width="50.0057" height="50.0057" rx="3.5" stroke="#4D6BFF" stroke-width="3"/>
<rect x="475.051" y="331.494" width="50.0057" height="50.0057" rx="3.5" stroke="#4D6BFF" stroke-width="3"/>
<rect x="556.324" y="331.494" width="50.0057" height="50.0057" rx="3.5" stroke="#4D6BFF" stroke-width="3"/>
<rect x="637.602" y="331.494" width="50.0057" height="50.0057" rx="3.5" stroke="#4D6BFF" stroke-width="3"/>
<line x1="364.004" y1="358.531" x2="392.274" y2="358.531" stroke="#4D6BFF" stroke-width="3"/>
<line x1="445.281" y1="358.531" x2="473.551" y2="358.531" stroke="#4D6BFF" stroke-width="3"/>
<line x1="526.555" y1="358.531" x2="554.824" y2="358.531" stroke="#4D6BFF" stroke-width="3"/>
<line x1="607.832" y1="358.531" x2="636.102" y2="358.531" stroke="#4D6BFF" stroke-width="3"/>
</svg>
