<svg width="759" height="549" viewBox="0 0 759 549" fill="none" xmlns="http://www.w3.org/2000/svg">
<path d="M0.323868 143V141.104V128V126.2H6.22787C9.22787 126.2 10.9559 127.76 10.9559 130.304C10.9559 132.152 9.85187 133.808 8.00387 134.072C10.0919 134.312 11.6519 135.872 11.6519 138.176C11.6519 141.176 9.65987 143 6.15587 143H0.323868ZM2.43587 141.176H5.89187C8.17187 141.176 9.49187 140.072 9.49187 138.104C9.49187 136.088 8.09987 135.008 5.81987 135.008H2.43587V141.176ZM2.43587 133.232H5.69987C7.69187 133.232 8.77187 132.248 8.77187 130.616C8.77187 128.96 7.71587 127.952 5.81987 127.952H2.43587V133.232ZM20.3309 143.36C16.8029 143.36 14.2109 140.792 14.2109 137.168C14.2109 133.544 16.8029 131.024 20.3309 131.024C23.8349 131.024 26.4269 133.544 26.4269 137.168C26.4269 140.792 23.8349 143.36 20.3309 143.36ZM16.3469 137.168C16.3469 139.688 17.9789 141.44 20.3309 141.44C22.6589 141.44 24.3149 139.688 24.3149 137.168C24.3149 134.672 22.6829 132.944 20.3309 132.944C17.9309 132.944 16.3469 134.672 16.3469 137.168ZM29.5124 128V125.48H31.5284V133.136C32.2964 131.768 33.8804 131.024 35.6084 131.024C38.8964 131.024 41.2484 133.448 41.2484 137.192C41.2484 140.912 38.8964 143.36 35.6084 143.36C33.8324 143.36 32.2724 142.616 31.5284 141.248V143H29.5124V128ZM31.5284 138.704C32.1044 140.504 33.4964 141.44 35.2004 141.44C37.5764 141.44 39.1364 139.664 39.1364 137.192C39.1364 134.696 37.5764 132.944 35.2004 132.944C33.5204 132.944 32.1044 133.88 31.5284 135.656V138.704ZM50.413 143V141.272V133.616V131.384H52.285V133.592C52.813 132.056 54.037 131.144 55.669 131.144C56.101 131.144 56.557 131.192 56.749 131.312V133.232C56.437 133.16 55.957 133.112 55.477 133.112C54.037 133.112 52.861 133.928 52.429 135.536V141.248V143H50.413ZM63.9351 143.36C60.3591 143.36 57.8871 141.176 57.8871 137.24C57.8871 133.616 59.9271 131.024 63.5271 131.024C67.0791 131.024 69.0711 133.256 69.0471 137.36H60.0231C60.1191 140.144 62.0871 141.344 64.7031 141.344C66.4551 141.344 68.1351 140.648 68.8551 139.352C68.8551 141.848 67.0311 143.36 63.9351 143.36ZM60.0471 135.848H66.8871C66.8871 134.168 65.7591 132.56 63.5031 132.56C61.4871 132.56 60.2151 133.856 60.0471 135.848ZM75.1127 143.36C73.4327 143.36 72.0647 142.808 71.0807 141.752V139.4C71.9927 140.768 73.6007 141.584 75.1607 141.584C76.4327 141.584 77.1047 141.008 77.1047 140.048C77.1047 139.208 76.7207 138.776 75.8327 138.392L73.6727 137.48C72.1127 136.808 71.3207 135.824 71.3207 134.312C71.3207 132.416 72.9767 131.024 75.2807 131.024C76.6007 131.024 77.8007 131.408 78.6887 132.152V134.336C77.9927 133.424 76.6007 132.752 75.3287 132.752C74.1767 132.752 73.4327 133.328 73.4327 134.168C73.4327 134.96 73.8887 135.416 74.8007 135.776L77.0327 136.736C78.4487 137.336 79.2167 138.344 79.2167 139.88C79.2167 141.968 77.5127 143.36 75.1127 143.36ZM87.2984 143.36C83.7704 143.36 81.1784 140.792 81.1784 137.168C81.1784 133.544 83.7704 131.024 87.2984 131.024C90.8024 131.024 93.3944 133.544 93.3944 137.168C93.3944 140.792 90.8024 143.36 87.2984 143.36ZM83.3144 137.168C83.3144 139.688 84.9464 141.44 87.2984 141.44C89.6264 141.44 91.2824 139.688 91.2824 137.168C91.2824 134.672 89.6504 132.944 87.2984 132.944C84.8984 132.944 83.3144 134.672 83.3144 137.168ZM96.4799 143V141.272V128V125.48H98.4959V141.2V143H96.4799ZM103.075 131.384L103.963 133.664L106.651 140.552L109.363 133.592C109.867 132.296 109.867 132.296 110.203 131.384H112.459L111.499 133.736L107.707 143H105.571L101.803 133.76C101.275 132.464 101.275 132.464 100.819 131.384H103.075ZM119.726 143.36C116.15 143.36 113.678 141.176 113.678 137.24C113.678 133.616 115.718 131.024 119.318 131.024C122.87 131.024 124.862 133.256 124.838 137.36H115.814C115.91 140.144 117.878 141.344 120.494 141.344C122.246 141.344 123.926 140.648 124.646 139.352C124.646 141.848 122.822 143.36 119.726 143.36ZM115.838 135.848H122.678C122.678 134.168 121.55 132.56 119.294 132.56C117.278 132.56 116.006 133.856 115.838 135.848ZM130.903 143.36C129.223 143.36 127.855 142.808 126.871 141.752V139.4C127.783 140.768 129.391 141.584 130.951 141.584C132.223 141.584 132.895 141.008 132.895 140.048C132.895 139.208 132.511 138.776 131.623 138.392L129.463 137.48C127.903 136.808 127.111 135.824 127.111 134.312C127.111 132.416 128.767 131.024 131.071 131.024C132.391 131.024 133.591 131.408 134.479 132.152V134.336C133.783 133.424 132.391 132.752 131.119 132.752C129.967 132.752 129.223 133.328 129.223 134.168C129.223 134.96 129.679 135.416 130.591 135.776L132.823 136.736C134.239 137.336 135.007 138.344 135.007 139.88C135.007 141.968 133.303 143.36 130.903 143.36ZM144.404 143V141.104V128V126.2H149.948C154.652 126.2 158.492 129.176 158.492 134.6C158.492 140.024 154.652 143 149.948 143H144.404ZM146.516 141.104H149.9C153.212 141.104 156.284 138.968 156.284 134.6C156.284 130.232 153.212 128.096 149.9 128.096H146.516V141.104ZM162.261 143V141.104V128V126.2H164.373V128.096V141.2V143H162.261ZM169.196 143V141.104V128V126.2H174.74C179.444 126.2 183.284 129.176 183.284 134.6C183.284 140.024 179.444 143 174.74 143H169.196ZM171.308 141.104H174.692C178.004 141.104 181.076 138.968 181.076 134.6C181.076 130.232 178.004 128.096 174.692 128.096H171.308V141.104ZM189.764 143.36C188.084 143.36 186.716 142.808 185.732 141.752V139.4C186.644 140.768 188.252 141.584 189.812 141.584C191.084 141.584 191.756 141.008 191.756 140.048C191.756 139.208 191.372 138.776 190.484 138.392L188.324 137.48C186.764 136.808 185.972 135.824 185.972 134.312C185.972 132.416 187.628 131.024 189.932 131.024C191.252 131.024 192.452 131.408 193.34 132.152V134.336C192.644 133.424 191.252 132.752 189.98 132.752C188.828 132.752 188.084 133.328 188.084 134.168C188.084 134.96 188.54 135.416 189.452 135.776L191.684 136.736C193.1 137.336 193.868 138.344 193.868 139.88C193.868 141.968 192.164 143.36 189.764 143.36ZM202.881 143V141.272V133.616V131.384H204.753V133.592C205.281 132.056 206.505 131.144 208.137 131.144C208.569 131.144 209.025 131.192 209.217 131.312V133.232C208.905 133.16 208.425 133.112 207.945 133.112C206.505 133.112 205.329 133.928 204.897 135.536V141.248V143H202.881ZM216.404 143.36C212.828 143.36 210.356 141.176 210.356 137.24C210.356 133.616 212.396 131.024 215.996 131.024C219.548 131.024 221.54 133.256 221.516 137.36H212.492C212.588 140.144 214.556 141.344 217.172 141.344C218.924 141.344 220.604 140.648 221.324 139.352C221.324 141.848 219.5 143.36 216.404 143.36ZM212.516 135.848H219.356C219.356 134.168 218.228 132.56 215.972 132.56C213.956 132.56 212.684 133.856 212.516 135.848ZM228.562 147.68C225.682 147.68 223.426 146.552 223.426 144.68C223.426 143.48 224.218 142.592 225.658 142.016C225.106 141.656 224.674 141.056 224.674 140.312C224.674 139.52 225.178 138.896 225.874 138.56C224.65 137.864 223.882 136.64 223.882 135.104C223.882 132.68 225.706 131.024 228.346 131.024C229.066 131.024 229.738 131.144 230.314 131.384H234.226L234.202 133.256H232.402C232.666 133.808 232.81 134.432 232.81 135.104C232.81 137.504 230.962 139.136 228.322 139.136C227.938 139.136 227.578 139.112 227.218 139.04C226.858 139.16 226.618 139.4 226.618 139.736C226.618 140.24 226.978 140.48 227.89 140.648L231.13 141.128C233.122 141.416 234.346 142.304 234.346 143.96C234.346 146.192 232.09 147.68 228.562 147.68ZM225.466 144.248C225.466 145.472 227.026 146.12 228.922 146.12C230.962 146.12 232.354 145.448 232.354 144.272C232.354 143.432 231.73 143.12 230.554 142.952L227.218 142.472C226.378 142.76 225.466 143.384 225.466 144.248ZM225.826 135.104C225.826 136.592 226.858 137.576 228.322 137.576C229.81 137.576 230.866 136.568 230.866 135.104C230.866 133.592 229.81 132.608 228.322 132.608C226.858 132.608 225.826 133.592 225.826 135.104ZM236.951 143V141.272V133.904V131.384H238.967V141.2V143H236.951ZM236.471 127.496C236.471 126.656 237.119 126.008 237.983 126.008C238.823 126.008 239.447 126.656 239.447 127.496C239.447 128.336 238.823 128.96 237.983 128.96C237.119 128.96 236.471 128.336 236.471 127.496ZM245.997 143.36C244.317 143.36 242.949 142.808 241.965 141.752V139.4C242.877 140.768 244.485 141.584 246.045 141.584C247.317 141.584 247.989 141.008 247.989 140.048C247.989 139.208 247.605 138.776 246.717 138.392L244.557 137.48C242.997 136.808 242.205 135.824 242.205 134.312C242.205 132.416 243.861 131.024 246.165 131.024C247.485 131.024 248.685 131.408 249.573 132.152V134.336C248.877 133.424 247.485 132.752 246.213 132.752C245.061 132.752 244.317 133.328 244.317 134.168C244.317 134.96 244.773 135.416 245.685 135.776L247.917 136.736C249.333 137.336 250.101 138.344 250.101 139.88C250.101 141.968 248.397 143.36 245.997 143.36ZM257.103 143.36C254.823 143.36 253.575 141.968 253.575 139.712V133.256H251.079L255.615 128.384V131.384H260.511V133.256H255.615V139.088C255.615 140.576 256.503 141.368 257.919 141.368C259.119 141.368 260.103 140.816 260.703 139.784C260.703 142.088 259.263 143.36 257.103 143.36ZM268.116 143.36C264.54 143.36 262.068 141.176 262.068 137.24C262.068 133.616 264.108 131.024 267.708 131.024C271.26 131.024 273.252 133.256 273.228 137.36H264.204C264.3 140.144 266.268 141.344 268.884 141.344C270.636 141.344 272.316 140.648 273.036 139.352C273.036 141.848 271.212 143.36 268.116 143.36ZM264.228 135.848H271.068C271.068 134.168 269.94 132.56 267.684 132.56C265.668 132.56 264.396 133.856 264.228 135.848ZM275.94 143V141.272V133.616V131.384H277.812V133.592C278.34 132.056 279.564 131.144 281.196 131.144C281.628 131.144 282.084 131.192 282.276 131.312V133.232C281.964 133.16 281.484 133.112 281.004 133.112C279.564 133.112 278.388 133.928 277.956 135.536V141.248V143H275.94ZM289.462 143.36C285.886 143.36 283.414 141.176 283.414 137.24C283.414 133.616 285.454 131.024 289.054 131.024C292.606 131.024 294.598 133.256 294.574 137.36H285.55C285.646 140.144 287.614 141.344 290.23 141.344C291.982 141.344 293.662 140.648 294.382 139.352C294.382 141.848 292.558 143.36 289.462 143.36ZM285.574 135.848H292.414C292.414 134.168 291.286 132.56 289.03 132.56C287.014 132.56 285.742 133.856 285.574 135.848ZM306.161 128V125.48H308.201V141.152V143H306.161V141.368C305.369 142.664 303.809 143.36 302.153 143.36C298.865 143.36 296.489 140.936 296.489 137.192C296.489 133.472 298.865 131.024 302.153 131.024C303.857 131.024 305.393 131.72 306.161 132.992V128ZM298.625 137.192C298.625 139.688 300.185 141.44 302.561 141.44C304.169 141.44 305.537 140.576 306.161 138.944V135.464C305.537 133.808 304.193 132.944 302.561 132.944C300.185 132.944 298.625 134.744 298.625 137.192ZM14.3628 175V173.272V165.904V163.384H16.3788V173.2V175H14.3628ZM13.8828 159.496C13.8828 158.656 14.5308 158.008 15.3948 158.008C16.2348 158.008 16.8588 158.656 16.8588 159.496C16.8588 160.336 16.2348 160.96 15.3948 160.96C14.5308 160.96 13.8828 160.336 13.8828 159.496ZM28.6143 175V173.272V168.088C28.6143 166.168 27.4863 164.992 25.6383 164.992C24.0303 164.992 23.0463 165.712 22.4463 167.176V173.2V175H20.4303V173.272V165.904V163.384H22.4463V164.968C23.1663 163.744 24.4143 163.024 26.1903 163.024C28.9743 163.024 30.6543 164.8 30.6543 167.44V173.272V175H28.6143ZM44.6135 175.36C42.3335 175.36 41.0855 173.968 41.0855 171.712V165.256H38.5895L43.1255 160.384V163.384H48.0215V165.256H43.1255V171.088C43.1255 172.576 44.0135 173.368 45.4295 173.368C46.6295 173.368 47.6135 172.816 48.2135 171.784C48.2135 174.088 46.7735 175.36 44.6135 175.36ZM58.7465 175V173.272V168.088C58.7465 166.168 57.6185 164.992 55.7705 164.992C54.1625 164.992 53.1785 165.712 52.5785 167.176V173.2V175H50.5625V173.272V160V157.48H52.5785V164.968C53.2985 163.744 54.5465 163.024 56.3225 163.024C59.1065 163.024 60.7865 164.8 60.7865 167.44V173.272V175H58.7465ZM69.6862 175.36C66.1102 175.36 63.6382 173.176 63.6382 169.24C63.6382 165.616 65.6782 163.024 69.2782 163.024C72.8302 163.024 74.8222 165.256 74.7982 169.36H65.7742C65.8702 172.144 67.8382 173.344 70.4542 173.344C72.2062 173.344 73.8862 172.648 74.6062 171.352C74.6062 173.848 72.7822 175.36 69.6862 175.36ZM65.7982 167.848H72.6382C72.6382 166.168 71.5102 164.56 69.2542 164.56C67.2382 164.56 65.9662 165.856 65.7982 167.848ZM91.949 175V173.272V168.088C91.949 166.168 90.821 164.992 88.973 164.992C87.365 164.992 86.381 165.712 85.781 167.176V173.2V175H83.765V173.272V165.904V163.384H85.781V164.968C86.501 163.744 87.749 163.024 89.525 163.024C92.309 163.024 93.989 164.8 93.989 167.44V173.272V175H91.949ZM102.889 175.36C99.3127 175.36 96.8407 173.176 96.8407 169.24C96.8407 165.616 98.8807 163.024 102.481 163.024C106.033 163.024 108.025 165.256 108.001 169.36H98.9767C99.0727 172.144 101.041 173.344 103.657 173.344C105.409 173.344 107.089 172.648 107.809 171.352C107.809 173.848 105.985 175.36 102.889 175.36ZM99.0007 167.848H105.841C105.841 166.168 104.713 164.56 102.457 164.56C100.441 164.56 99.1687 165.856 99.0007 167.848ZM114.956 175.36C112.676 175.36 111.428 173.968 111.428 171.712V165.256H108.932L113.468 160.384V163.384H118.364V165.256H113.468V171.088C113.468 172.576 114.356 173.368 115.772 173.368C116.972 173.368 117.956 172.816 118.556 171.784C118.556 174.088 117.116 175.36 114.956 175.36ZM121.553 163.384C121.961 164.608 121.961 164.608 122.273 165.64L124.577 172.624L127.841 163.384H129.833L133.049 172.552L135.329 165.712L136.073 163.384H138.281C137.873 164.536 137.873 164.536 137.441 165.712L134.105 175H132.089L128.825 166L125.561 175H123.545L120.209 165.784C119.753 164.512 119.753 164.512 119.369 163.384H121.553ZM145.702 175.36C142.174 175.36 139.582 172.792 139.582 169.168C139.582 165.544 142.174 163.024 145.702 163.024C149.206 163.024 151.798 165.544 151.798 169.168C151.798 172.792 149.206 175.36 145.702 175.36ZM141.718 169.168C141.718 171.688 143.35 173.44 145.702 173.44C148.03 173.44 149.686 171.688 149.686 169.168C149.686 166.672 148.054 164.944 145.702 164.944C143.302 164.944 141.718 166.672 141.718 169.168ZM154.884 175V173.272V165.616V163.384H156.756V165.592C157.284 164.056 158.508 163.144 160.14 163.144C160.572 163.144 161.028 163.192 161.22 163.312V165.232C160.908 165.16 160.428 165.112 159.948 165.112C158.508 165.112 157.332 165.928 156.9 167.536V173.248V175H154.884ZM171.168 175L165.264 168.952V173.2V175H163.248V173.272V160V157.48H165.264V168.664L168.432 165.616C169.728 164.392 169.752 164.392 170.808 163.384H173.496L171.096 165.616L167.808 168.688L172.44 173.416L173.952 175H171.168ZM182.086 175V173.272V165.904V163.384H184.102V173.2V175H182.086ZM181.606 159.496C181.606 158.656 182.254 158.008 183.118 158.008C183.958 158.008 184.582 158.656 184.582 159.496C184.582 160.336 183.958 160.96 183.118 160.96C182.254 160.96 181.606 160.336 181.606 159.496ZM196.338 175V173.272V168.088C196.338 166.168 195.21 164.992 193.362 164.992C191.754 164.992 190.77 165.712 190.17 167.176V173.2V175H188.154V173.272V165.904V163.384H190.17V164.968C190.89 163.744 192.138 163.024 193.914 163.024C196.698 163.024 198.378 164.8 198.378 167.44V173.272V175H196.338ZM213.417 175.36C209.889 175.36 207.297 172.792 207.297 169.168C207.297 165.544 209.889 163.024 213.417 163.024C216.921 163.024 219.513 165.544 219.513 169.168C219.513 172.792 216.921 175.36 213.417 175.36ZM209.433 169.168C209.433 171.688 211.065 173.44 213.417 173.44C215.745 173.44 217.401 171.688 217.401 169.168C217.401 166.672 215.769 164.944 213.417 164.944C211.017 164.944 209.433 166.672 209.433 169.168ZM222.598 175V173.272V165.616V163.384H224.47V165.592C224.998 164.056 226.222 163.144 227.854 163.144C228.286 163.144 228.742 163.192 228.934 163.312V165.232C228.622 165.16 228.142 165.112 227.662 165.112C226.222 165.112 225.046 165.928 224.614 167.536V173.248V175H222.598ZM239.698 160V157.48H241.738V173.152V175H239.698V173.368C238.906 174.664 237.346 175.36 235.69 175.36C232.402 175.36 230.026 172.936 230.026 169.192C230.026 165.472 232.402 163.024 235.69 163.024C237.394 163.024 238.93 163.72 239.698 164.992V160ZM232.162 169.192C232.162 171.688 233.722 173.44 236.098 173.44C237.706 173.44 239.074 172.576 239.698 170.944V167.464C239.074 165.808 237.73 164.944 236.098 164.944C233.722 164.944 232.162 166.744 232.162 169.192ZM250.837 175.36C247.261 175.36 244.789 173.176 244.789 169.24C244.789 165.616 246.829 163.024 250.429 163.024C253.981 163.024 255.973 165.256 255.949 169.36H246.925C247.021 172.144 248.989 173.344 251.605 173.344C253.357 173.344 255.037 172.648 255.757 171.352C255.757 173.848 253.933 175.36 250.837 175.36ZM246.949 167.848H253.789C253.789 166.168 252.661 164.56 250.405 164.56C248.389 164.56 247.117 165.856 246.949 167.848ZM258.66 175V173.272V165.616V163.384H260.532V165.592C261.06 164.056 262.284 163.144 263.916 163.144C264.348 163.144 264.804 163.192 264.996 163.312V165.232C264.684 165.16 264.204 165.112 263.724 165.112C262.284 165.112 261.108 165.928 260.676 167.536V173.248V175H258.66ZM277.547 175.36C275.267 175.36 274.019 173.968 274.019 171.712V165.256H271.523L276.059 160.384V163.384H280.955V165.256H276.059V171.088C276.059 172.576 276.947 173.368 278.363 173.368C279.563 173.368 280.547 172.816 281.147 171.784C281.147 174.088 279.707 175.36 277.547 175.36ZM288.632 175.36C285.104 175.36 282.512 172.792 282.512 169.168C282.512 165.544 285.104 163.024 288.632 163.024C292.136 163.024 294.728 165.544 294.728 169.168C294.728 172.792 292.136 175.36 288.632 175.36ZM284.648 169.168C284.648 171.688 286.28 173.44 288.632 173.44C290.96 173.44 292.616 171.688 292.616 169.168C292.616 166.672 290.984 164.944 288.632 164.944C286.232 164.944 284.648 166.672 284.648 169.168ZM62.8313 195.384L63.7193 197.664L66.4073 204.552L69.1193 197.592C69.6233 196.296 69.6233 196.296 69.9593 195.384H72.2153L71.2553 197.736L67.4633 207H65.3273L61.5593 197.76C61.0313 196.464 61.0313 196.464 60.5753 195.384H62.8313ZM79.4817 207.36C75.9057 207.36 73.4337 205.176 73.4337 201.24C73.4337 197.616 75.4737 195.024 79.0737 195.024C82.6257 195.024 84.6177 197.256 84.5937 201.36H75.5697C75.6657 204.144 77.6337 205.344 80.2497 205.344C82.0017 205.344 83.6817 204.648 84.4017 203.352C84.4017 205.848 82.5777 207.36 79.4817 207.36ZM75.5937 199.848H82.4337C82.4337 198.168 81.3057 196.56 79.0497 196.56C77.0337 196.56 75.7617 197.856 75.5937 199.848ZM87.3055 207V205.272V197.616V195.384H89.1775V197.592C89.7055 196.056 90.9295 195.144 92.5615 195.144C92.9935 195.144 93.4495 195.192 93.6415 195.312V197.232C93.3295 197.16 92.8495 197.112 92.3695 197.112C90.9295 197.112 89.7535 197.928 89.3215 199.536V205.248V207H87.3055ZM95.6699 207V205.272V197.904V195.384H97.6859V205.2V207H95.6699ZM95.1899 191.496C95.1899 190.656 95.8379 190.008 96.7019 190.008C97.5419 190.008 98.1659 190.656 98.1659 191.496C98.1659 192.336 97.5419 192.96 96.7019 192.96C95.8379 192.96 95.1899 192.336 95.1899 191.496ZM100.109 197.256V195.384H102.293V193.464C102.293 190.824 103.685 189.24 106.157 189.24C106.973 189.24 107.789 189.432 108.437 189.888V191.808C107.957 191.352 107.213 191.064 106.397 191.064C104.957 191.064 104.309 191.904 104.309 193.368V195.384H107.717V197.256H104.309V205.2V207H102.293V205.272V197.256H100.109ZM110.454 211.32C110.79 210.576 111.078 210.024 111.438 209.256L113.214 205.632L109.398 197.352C108.942 196.32 108.942 196.32 108.51 195.384H110.79C111.27 196.44 111.27 196.44 111.702 197.424L114.39 203.28L116.958 197.52C117.51 196.248 117.51 196.248 117.87 195.384H120.126L119.166 197.472L112.806 211.32H110.454ZM128.471 197.904V195.384H130.487V197.04C131.255 195.72 132.815 195.024 134.495 195.024C137.783 195.024 140.159 197.448 140.159 201.192C140.159 204.912 137.783 207.36 134.495 207.36C132.791 207.36 131.231 206.664 130.487 205.344V209.52V211.32H128.471V209.592V197.904ZM130.487 202.872C131.087 204.552 132.431 205.44 134.087 205.44C136.463 205.44 138.047 203.664 138.047 201.192C138.047 198.696 136.463 196.944 134.087 196.944C132.455 196.944 131.087 197.808 130.487 199.488V202.872ZM150.963 197.904V195.384H152.979V205.152V207H150.963V205.56C150.243 206.688 149.019 207.36 147.291 207.36C144.579 207.36 142.971 205.584 142.971 202.944V197.904V195.384H144.987V202.296C144.987 204.216 146.091 205.392 147.867 205.392C149.403 205.392 150.363 204.696 150.963 203.28V197.904ZM157.036 192V189.48H159.052V197.136C159.82 195.768 161.404 195.024 163.132 195.024C166.42 195.024 168.772 197.448 168.772 201.192C168.772 204.912 166.42 207.36 163.132 207.36C161.356 207.36 159.796 206.616 159.052 205.248V207H157.036V192ZM159.052 202.704C159.628 204.504 161.02 205.44 162.724 205.44C165.1 205.44 166.66 203.664 166.66 201.192C166.66 198.696 165.1 196.944 162.724 196.944C161.044 196.944 159.628 197.88 159.052 199.656V202.704ZM171.869 207V205.272V192V189.48H173.885V205.2V207H171.869ZM177.936 207V205.272V197.904V195.384H179.952V205.2V207H177.936ZM177.456 191.496C177.456 190.656 178.104 190.008 178.968 190.008C179.808 190.008 180.432 190.656 180.432 191.496C180.432 192.336 179.808 192.96 178.968 192.96C178.104 192.96 177.456 192.336 177.456 191.496ZM188.828 207.36C185.372 207.36 183.02 204.96 183.02 201.24C183.02 197.568 185.492 195.024 189.116 195.024C190.82 195.024 192.164 195.456 193.1 196.32V198.768C192.356 197.688 191.084 196.896 189.26 196.896C186.812 196.896 185.156 198.576 185.156 201.12C185.156 203.616 186.812 205.296 189.428 205.296C191.276 205.296 192.62 204.528 193.364 203.016C193.364 205.872 191.732 207.36 188.828 207.36ZM210.223 207L204.319 200.952V205.2V207H202.303V205.272V192V189.48H204.319V200.664L207.487 197.616C208.783 196.392 208.807 196.392 209.863 195.384H212.551L210.151 197.616L206.863 200.688L211.495 205.416L213.007 207H210.223ZM219.716 207.36C216.14 207.36 213.668 205.176 213.668 201.24C213.668 197.616 215.708 195.024 219.308 195.024C222.86 195.024 224.852 197.256 224.828 201.36H215.804C215.9 204.144 217.868 205.344 220.484 205.344C222.236 205.344 223.916 204.648 224.636 203.352C224.636 205.848 222.812 207.36 219.716 207.36ZM215.828 199.848H222.668C222.668 198.168 221.54 196.56 219.284 196.56C217.268 196.56 215.996 197.856 215.828 199.848ZM227.705 211.32C228.041 210.576 228.329 210.024 228.689 209.256L230.465 205.632L226.649 197.352C226.193 196.32 226.193 196.32 225.761 195.384H228.041C228.521 196.44 228.521 196.44 228.953 197.424L231.641 203.28L234.209 197.52C234.761 196.248 234.761 196.248 235.121 195.384H237.377L236.417 197.472L230.057 211.32H227.705ZM242.703 207.36C241.023 207.36 239.655 206.808 238.671 205.752V203.4C239.583 204.768 241.191 205.584 242.751 205.584C244.023 205.584 244.695 205.008 244.695 204.048C244.695 203.208 244.311 202.776 243.423 202.392L241.263 201.48C239.703 200.808 238.911 199.824 238.911 198.312C238.911 196.416 240.567 195.024 242.871 195.024C244.191 195.024 245.391 195.408 246.279 196.152V198.336C245.583 197.424 244.191 196.752 242.919 196.752C241.767 196.752 241.023 197.328 241.023 198.168C241.023 198.96 241.479 199.416 242.391 199.776L244.623 200.736C246.039 201.336 246.807 202.344 246.807 203.88C246.807 205.968 245.103 207.36 242.703 207.36Z" fill="#4D6BFF"/>
<path d="M335 320L332.847 297.007L314.011 310.367L335 320ZM272.369 235.157L322.955 306.475L326.218 304.161L275.631 232.843L272.369 235.157Z" fill="#4D6BFF"/>
<path d="M479.238 143C479.742 141.728 479.742 141.728 480.198 140.624L485.958 126.2H488.094L493.878 140.672L494.814 143H492.486L491.67 140.816L490.662 138.2H483.342L482.334 140.864L481.542 143H479.238ZM484.086 136.28H489.942L487.014 128.576L484.086 136.28ZM497.202 143V141.272V128V125.48H499.218V141.2V143H497.202ZM503.27 143V141.272V133.904V131.384H505.286V141.2V143H503.27ZM502.79 127.496C502.79 126.656 503.438 126.008 504.302 126.008C505.142 126.008 505.766 126.656 505.766 127.496C505.766 128.336 505.142 128.96 504.302 128.96C503.438 128.96 502.79 128.336 502.79 127.496ZM514.161 143.36C510.705 143.36 508.353 140.96 508.353 137.24C508.353 133.568 510.825 131.024 514.449 131.024C516.153 131.024 517.497 131.456 518.433 132.32V134.768C517.689 133.688 516.417 132.896 514.593 132.896C512.145 132.896 510.489 134.576 510.489 137.12C510.489 139.616 512.145 141.296 514.761 141.296C516.609 141.296 517.953 140.528 518.697 139.016C518.697 141.872 517.065 143.36 514.161 143.36ZM526.633 143.36C523.057 143.36 520.585 141.176 520.585 137.24C520.585 133.616 522.625 131.024 526.225 131.024C529.777 131.024 531.769 133.256 531.745 137.36H522.721C522.817 140.144 524.785 141.344 527.401 141.344C529.153 141.344 530.833 140.648 531.553 139.352C531.553 141.848 529.729 143.36 526.633 143.36ZM522.745 135.848H529.585C529.585 134.168 528.457 132.56 526.201 132.56C524.185 132.56 522.913 133.856 522.745 135.848ZM544.648 147.68C541.768 147.68 539.512 146.552 539.512 144.68C539.512 143.48 540.304 142.592 541.744 142.016C541.192 141.656 540.76 141.056 540.76 140.312C540.76 139.52 541.264 138.896 541.96 138.56C540.736 137.864 539.968 136.64 539.968 135.104C539.968 132.68 541.792 131.024 544.432 131.024C545.152 131.024 545.824 131.144 546.4 131.384H550.312L550.288 133.256H548.488C548.752 133.808 548.896 134.432 548.896 135.104C548.896 137.504 547.048 139.136 544.408 139.136C544.024 139.136 543.664 139.112 543.304 139.04C542.944 139.16 542.704 139.4 542.704 139.736C542.704 140.24 543.064 140.48 543.976 140.648L547.216 141.128C549.208 141.416 550.432 142.304 550.432 143.96C550.432 146.192 548.176 147.68 544.648 147.68ZM541.552 144.248C541.552 145.472 543.112 146.12 545.008 146.12C547.048 146.12 548.44 145.448 548.44 144.272C548.44 143.432 547.816 143.12 546.64 142.952L543.304 142.472C542.464 142.76 541.552 143.384 541.552 144.248ZM541.912 135.104C541.912 136.592 542.944 137.576 544.408 137.576C545.896 137.576 546.952 136.568 546.952 135.104C546.952 133.592 545.896 132.608 544.408 132.608C542.944 132.608 541.912 133.592 541.912 135.104ZM558.242 143.36C554.666 143.36 552.194 141.176 552.194 137.24C552.194 133.616 554.234 131.024 557.834 131.024C561.386 131.024 563.378 133.256 563.354 137.36H554.33C554.426 140.144 556.394 141.344 559.01 141.344C560.762 141.344 562.442 140.648 563.162 139.352C563.162 141.848 561.338 143.36 558.242 143.36ZM554.354 135.848H561.194C561.194 134.168 560.066 132.56 557.81 132.56C555.794 132.56 554.522 133.856 554.354 135.848ZM574.25 143V141.272V136.088C574.25 134.168 573.122 132.992 571.274 132.992C569.666 132.992 568.682 133.712 568.082 135.176V141.2V143H566.066V141.272V133.904V131.384H568.082V132.968C568.802 131.744 570.05 131.024 571.826 131.024C574.61 131.024 576.29 132.8 576.29 135.44V141.272V143H574.25ZM585.189 143.36C581.613 143.36 579.141 141.176 579.141 137.24C579.141 133.616 581.181 131.024 584.781 131.024C588.333 131.024 590.325 133.256 590.301 137.36H581.277C581.373 140.144 583.341 141.344 585.957 141.344C587.709 141.344 589.389 140.648 590.109 139.352C590.109 141.848 588.285 143.36 585.189 143.36ZM581.301 135.848H588.141C588.141 134.168 587.013 132.56 584.757 132.56C582.741 132.56 581.469 133.856 581.301 135.848ZM593.013 143V141.272V133.616V131.384H594.885V133.592C595.413 132.056 596.637 131.144 598.269 131.144C598.701 131.144 599.157 131.192 599.349 131.312V133.232C599.037 133.16 598.557 133.112 598.077 133.112C596.637 133.112 595.461 133.928 595.029 135.536V141.248V143H593.013ZM610.403 143.36C609.227 143.36 608.507 142.784 608.267 141.728C607.523 142.712 606.155 143.36 604.499 143.36C602.171 143.36 600.611 142.04 600.611 140.072C600.611 138.176 601.883 136.856 604.355 136.448L608.147 135.8C608.147 133.88 607.115 132.872 605.099 132.872C603.083 132.872 601.835 133.688 600.899 135.296C600.899 132.584 602.651 131.024 605.531 131.024C608.531 131.024 610.163 132.608 610.163 135.584V140.288C610.163 141.104 610.595 141.584 611.339 141.584C611.867 141.584 612.275 141.368 612.563 141.008C612.563 142.64 611.531 143.36 610.403 143.36ZM602.723 139.88C602.723 140.912 603.635 141.632 605.051 141.632C606.419 141.632 607.571 140.96 608.147 139.928V137.24L605.003 137.816C603.395 138.128 602.723 138.848 602.723 139.88ZM618.274 143.36C615.994 143.36 614.746 141.968 614.746 139.712V133.256H612.25L616.786 128.384V131.384H621.682V133.256H616.786V139.088C616.786 140.576 617.674 141.368 619.09 141.368C620.29 141.368 621.274 140.816 621.874 139.784C621.874 142.088 620.434 143.36 618.274 143.36ZM629.287 143.36C625.711 143.36 623.239 141.176 623.239 137.24C623.239 133.616 625.279 131.024 628.879 131.024C632.431 131.024 634.423 133.256 634.399 137.36H625.375C625.471 140.144 627.439 141.344 630.055 141.344C631.807 141.344 633.487 140.648 634.207 139.352C634.207 141.848 632.383 143.36 629.287 143.36ZM625.399 135.848H632.239C632.239 134.168 631.111 132.56 628.855 132.56C626.839 132.56 625.567 133.856 625.399 135.848ZM640.465 143.36C638.785 143.36 637.417 142.808 636.433 141.752V139.4C637.345 140.768 638.953 141.584 640.513 141.584C641.785 141.584 642.457 141.008 642.457 140.048C642.457 139.208 642.073 138.776 641.185 138.392L639.025 137.48C637.465 136.808 636.673 135.824 636.673 134.312C636.673 132.416 638.329 131.024 640.633 131.024C641.953 131.024 643.153 131.408 644.041 132.152V134.336C643.345 133.424 641.953 132.752 640.681 132.752C639.529 132.752 638.785 133.328 638.785 134.168C638.785 134.96 639.241 135.416 640.153 135.776L642.385 136.736C643.801 137.336 644.569 138.344 644.569 139.88C644.569 141.968 642.865 143.36 640.465 143.36ZM653.966 143V141.104V128V126.2H659.51C664.214 126.2 668.054 129.176 668.054 134.6C668.054 140.024 664.214 143 659.51 143H653.966ZM656.078 141.104H659.462C662.774 141.104 665.846 138.968 665.846 134.6C665.846 130.232 662.774 128.096 659.462 128.096H656.078V141.104ZM671.823 143V141.104V128V126.2H673.935V128.096V141.2V143H671.823ZM678.757 143V141.104V128V126.2H684.301C689.005 126.2 692.845 129.176 692.845 134.6C692.845 140.024 689.005 143 684.301 143H678.757ZM680.869 141.104H684.253C687.565 141.104 690.637 138.968 690.637 134.6C690.637 130.232 687.565 128.096 684.253 128.096H680.869V141.104ZM699.326 143.36C697.646 143.36 696.278 142.808 695.294 141.752V139.4C696.206 140.768 697.814 141.584 699.374 141.584C700.646 141.584 701.318 141.008 701.318 140.048C701.318 139.208 700.934 138.776 700.046 138.392L697.886 137.48C696.326 136.808 695.534 135.824 695.534 134.312C695.534 132.416 697.19 131.024 699.494 131.024C700.814 131.024 702.014 131.408 702.902 132.152V134.336C702.206 133.424 700.814 132.752 699.542 132.752C698.39 132.752 697.646 133.328 697.646 134.168C697.646 134.96 698.102 135.416 699.014 135.776L701.246 136.736C702.662 137.336 703.43 138.344 703.43 139.88C703.43 141.968 701.726 143.36 699.326 143.36ZM713.091 131.384C713.499 132.608 713.499 132.608 713.811 133.64L716.115 140.624L719.379 131.384H721.371L724.587 140.552L726.867 133.712L727.611 131.384H729.819C729.411 132.536 729.411 132.536 728.979 133.712L725.643 143H723.627L720.363 134L717.099 143H715.083L711.747 133.784C711.291 132.512 711.291 132.512 710.907 131.384H713.091ZM732.221 143V141.272V133.904V131.384H734.237V141.2V143H732.221ZM731.741 127.496C731.741 126.656 732.389 126.008 733.253 126.008C734.093 126.008 734.717 126.656 734.717 127.496C734.717 128.336 734.093 128.96 733.253 128.96C732.389 128.96 731.741 128.336 731.741 127.496ZM742.321 143.36C740.041 143.36 738.793 141.968 738.793 139.712V133.256H736.297L740.833 128.384V131.384H745.729V133.256H740.833V139.088C740.833 140.576 741.721 141.368 743.137 141.368C744.337 141.368 745.321 140.816 745.921 139.784C745.921 142.088 744.481 143.36 742.321 143.36ZM756.454 143V141.272V136.088C756.454 134.168 755.326 132.992 753.478 132.992C751.87 132.992 750.886 133.712 750.286 135.176V141.2V143H748.27V141.272V128V125.48H750.286V132.968C751.006 131.744 752.254 131.024 754.03 131.024C756.814 131.024 758.494 132.8 758.494 135.44V141.272V143H756.454ZM487.936 165.904V163.384H489.952V165.04C490.72 163.72 492.28 163.024 493.96 163.024C497.248 163.024 499.624 165.448 499.624 169.192C499.624 172.912 497.248 175.36 493.96 175.36C492.256 175.36 490.696 174.664 489.952 173.344V177.52V179.32H487.936V177.592V165.904ZM489.952 170.872C490.552 172.552 491.896 173.44 493.552 173.44C495.928 173.44 497.512 171.664 497.512 169.192C497.512 166.696 495.928 164.944 493.552 164.944C491.92 164.944 490.552 165.808 489.952 167.488V170.872ZM510.428 165.904V163.384H512.444V173.152V175H510.428V173.56C509.708 174.688 508.484 175.36 506.756 175.36C504.044 175.36 502.436 173.584 502.436 170.944V165.904V163.384H504.452V170.296C504.452 172.216 505.556 173.392 507.332 173.392C508.868 173.392 509.828 172.696 510.428 171.28V165.904ZM516.5 160V157.48H518.516V165.136C519.284 163.768 520.868 163.024 522.596 163.024C525.884 163.024 528.236 165.448 528.236 169.192C528.236 172.912 525.884 175.36 522.596 175.36C520.82 175.36 519.26 174.616 518.516 173.248V175H516.5V160ZM518.516 170.704C519.092 172.504 520.484 173.44 522.188 173.44C524.564 173.44 526.124 171.664 526.124 169.192C526.124 166.696 524.564 164.944 522.188 164.944C520.508 164.944 519.092 165.88 518.516 167.656V170.704ZM531.333 175V173.272V160V157.48H533.349V173.2V175H531.333ZM537.401 175V173.272V165.904V163.384H539.417V173.2V175H537.401ZM536.921 159.496C536.921 158.656 537.569 158.008 538.433 158.008C539.273 158.008 539.897 158.656 539.897 159.496C539.897 160.336 539.273 160.96 538.433 160.96C537.569 160.96 536.921 160.336 536.921 159.496ZM548.292 175.36C544.836 175.36 542.484 172.96 542.484 169.24C542.484 165.568 544.956 163.024 548.58 163.024C550.284 163.024 551.628 163.456 552.564 164.32V166.768C551.82 165.688 550.548 164.896 548.724 164.896C546.276 164.896 544.62 166.576 544.62 169.12C544.62 171.616 546.276 173.296 548.892 173.296C550.74 173.296 552.084 172.528 552.828 171.016C552.828 173.872 551.196 175.36 548.292 175.36ZM569.688 175L563.784 168.952V173.2V175H561.768V173.272V160V157.48H563.784V168.664L566.952 165.616C568.248 164.392 568.272 164.392 569.328 163.384H572.016L569.616 165.616L566.328 168.688L570.96 173.416L572.472 175H569.688ZM579.18 175.36C575.604 175.36 573.132 173.176 573.132 169.24C573.132 165.616 575.172 163.024 578.772 163.024C582.324 163.024 584.316 165.256 584.292 169.36H575.268C575.364 172.144 577.332 173.344 579.948 173.344C581.7 173.344 583.38 172.648 584.1 171.352C584.1 173.848 582.276 175.36 579.18 175.36ZM575.292 167.848H582.132C582.132 166.168 581.004 164.56 578.748 164.56C576.732 164.56 575.46 165.856 575.292 167.848ZM587.169 179.32C587.505 178.576 587.793 178.024 588.153 177.256L589.929 173.632L586.113 165.352C585.657 164.32 585.657 164.32 585.225 163.384H587.505C587.985 164.44 587.985 164.44 588.417 165.424L591.105 171.28L593.673 165.52C594.225 164.248 594.225 164.248 594.585 163.384H596.841L595.881 165.472L589.521 179.32H587.169ZM602.168 175.36C600.488 175.36 599.12 174.808 598.136 173.752V171.4C599.048 172.768 600.656 173.584 602.216 173.584C603.488 173.584 604.16 173.008 604.16 172.048C604.16 171.208 603.776 170.776 602.888 170.392L600.728 169.48C599.168 168.808 598.376 167.824 598.376 166.312C598.376 164.416 600.032 163.024 602.336 163.024C603.656 163.024 604.856 163.408 605.744 164.152V166.336C605.048 165.424 603.656 164.752 602.384 164.752C601.232 164.752 600.488 165.328 600.488 166.168C600.488 166.96 600.944 167.416 601.856 167.776L604.088 168.736C605.504 169.336 606.272 170.344 606.272 171.88C606.272 173.968 604.568 175.36 602.168 175.36ZM624.381 175.36C623.205 175.36 622.485 174.784 622.245 173.728C621.501 174.712 620.133 175.36 618.477 175.36C616.149 175.36 614.589 174.04 614.589 172.072C614.589 170.176 615.861 168.856 618.333 168.448L622.125 167.8C622.125 165.88 621.093 164.872 619.077 164.872C617.061 164.872 615.813 165.688 614.877 167.296C614.877 164.584 616.629 163.024 619.509 163.024C622.509 163.024 624.141 164.608 624.141 167.584V172.288C624.141 173.104 624.573 173.584 625.317 173.584C625.845 173.584 626.253 173.368 626.541 173.008C626.541 174.64 625.509 175.36 624.381 175.36ZM616.701 171.88C616.701 172.912 617.613 173.632 619.029 173.632C620.397 173.632 621.549 172.96 622.125 171.928V169.24L618.981 169.816C617.373 170.128 616.701 170.848 616.701 171.88ZM636.778 175V173.272V168.088C636.778 166.168 635.65 164.992 633.802 164.992C632.194 164.992 631.21 165.712 630.61 167.176V173.2V175H628.594V173.272V165.904V163.384H630.61V164.968C631.33 163.744 632.578 163.024 634.354 163.024C637.138 163.024 638.818 164.8 638.818 167.44V173.272V175H636.778ZM651.342 160V157.48H653.382V173.152V175H651.342V173.368C650.55 174.664 648.99 175.36 647.334 175.36C644.046 175.36 641.67 172.936 641.67 169.192C641.67 165.472 644.046 163.024 647.334 163.024C649.038 163.024 650.574 163.72 651.342 164.992V160ZM643.806 169.192C643.806 171.688 645.366 173.44 647.742 173.44C649.35 173.44 650.718 172.576 651.342 170.944V167.464C650.718 165.808 649.374 164.944 647.742 164.944C645.366 164.944 643.806 166.744 643.806 169.192ZM663.484 175V173.272V165.616V163.384H665.356V165.592C665.884 164.056 667.108 163.144 668.74 163.144C669.172 163.144 669.628 163.192 669.82 163.312V165.232C669.508 165.16 669.028 165.112 668.548 165.112C667.108 165.112 665.932 165.928 665.5 167.536V173.248V175H663.484ZM677.007 175.36C673.431 175.36 670.959 173.176 670.959 169.24C670.959 165.616 672.999 163.024 676.599 163.024C680.151 163.024 682.143 165.256 682.119 169.36H673.095C673.191 172.144 675.159 173.344 677.775 173.344C679.527 173.344 681.207 172.648 681.927 171.352C681.927 173.848 680.103 175.36 677.007 175.36ZM673.119 167.848H679.959C679.959 166.168 678.831 164.56 676.575 164.56C674.559 164.56 673.287 165.856 673.119 167.848ZM689.165 179.68C686.285 179.68 684.029 178.552 684.029 176.68C684.029 175.48 684.821 174.592 686.261 174.016C685.709 173.656 685.277 173.056 685.277 172.312C685.277 171.52 685.781 170.896 686.477 170.56C685.253 169.864 684.485 168.64 684.485 167.104C684.485 164.68 686.309 163.024 688.949 163.024C689.669 163.024 690.341 163.144 690.917 163.384H694.829L694.805 165.256H693.005C693.269 165.808 693.413 166.432 693.413 167.104C693.413 169.504 691.565 171.136 688.925 171.136C688.541 171.136 688.181 171.112 687.821 171.04C687.461 171.16 687.221 171.4 687.221 171.736C687.221 172.24 687.581 172.48 688.493 172.648L691.733 173.128C693.725 173.416 694.949 174.304 694.949 175.96C694.949 178.192 692.693 179.68 689.165 179.68ZM686.069 176.248C686.069 177.472 687.629 178.12 689.525 178.12C691.565 178.12 692.957 177.448 692.957 176.272C692.957 175.432 692.333 175.12 691.157 174.952L687.821 174.472C686.981 174.76 686.069 175.384 686.069 176.248ZM686.429 167.104C686.429 168.592 687.461 169.576 688.925 169.576C690.413 169.576 691.469 168.568 691.469 167.104C691.469 165.592 690.413 164.608 688.925 164.608C687.461 164.608 686.429 165.592 686.429 167.104ZM697.554 175V173.272V165.904V163.384H699.57V173.2V175H697.554ZM697.074 159.496C697.074 158.656 697.722 158.008 698.586 158.008C699.426 158.008 700.05 158.656 700.05 159.496C700.05 160.336 699.426 160.96 698.586 160.96C697.722 160.96 697.074 160.336 697.074 159.496ZM706.6 175.36C704.92 175.36 703.552 174.808 702.568 173.752V171.4C703.48 172.768 705.088 173.584 706.648 173.584C707.92 173.584 708.592 173.008 708.592 172.048C708.592 171.208 708.208 170.776 707.32 170.392L705.16 169.48C703.6 168.808 702.808 167.824 702.808 166.312C702.808 164.416 704.464 163.024 706.768 163.024C708.088 163.024 709.288 163.408 710.176 164.152V166.336C709.48 165.424 708.088 164.752 706.816 164.752C705.664 164.752 704.92 165.328 704.92 166.168C704.92 166.96 705.376 167.416 706.288 167.776L708.52 168.736C709.936 169.336 710.704 170.344 710.704 171.88C710.704 173.968 709 175.36 706.6 175.36ZM717.706 175.36C715.426 175.36 714.178 173.968 714.178 171.712V165.256H711.682L716.218 160.384V163.384H721.114V165.256H716.218V171.088C716.218 172.576 717.106 173.368 718.522 173.368C719.722 173.368 720.706 172.816 721.306 171.784C721.306 174.088 719.866 175.36 717.706 175.36ZM728.719 175.36C725.143 175.36 722.671 173.176 722.671 169.24C722.671 165.616 724.711 163.024 728.311 163.024C731.863 163.024 733.855 165.256 733.831 169.36H724.807C724.903 172.144 726.871 173.344 729.487 173.344C731.239 173.344 732.919 172.648 733.639 171.352C733.639 173.848 731.815 175.36 728.719 175.36ZM724.831 167.848H731.671C731.671 166.168 730.543 164.56 728.287 164.56C726.271 164.56 724.999 165.856 724.831 167.848ZM736.543 175V173.272V165.616V163.384H738.415V165.592C738.943 164.056 740.167 163.144 741.799 163.144C742.231 163.144 742.687 163.192 742.879 163.312V165.232C742.567 165.16 742.087 165.112 741.607 165.112C740.167 165.112 738.991 165.928 738.559 167.536V173.248V175H736.543ZM748.191 175.36C746.511 175.36 745.143 174.808 744.159 173.752V171.4C745.071 172.768 746.679 173.584 748.239 173.584C749.511 173.584 750.183 173.008 750.183 172.048C750.183 171.208 749.799 170.776 748.911 170.392L746.751 169.48C745.191 168.808 744.399 167.824 744.399 166.312C744.399 164.416 746.055 163.024 748.359 163.024C749.679 163.024 750.879 163.408 751.767 164.152V166.336C751.071 165.424 749.679 164.752 748.407 164.752C747.255 164.752 746.511 165.328 746.511 166.168C746.511 166.96 746.967 167.416 747.879 167.776L750.111 168.736C751.527 169.336 752.295 170.344 752.295 171.88C752.295 173.968 750.591 175.36 748.191 175.36ZM512.501 207.36C510.221 207.36 508.973 205.968 508.973 203.712V197.256H506.477L511.013 192.384V195.384H515.909V197.256H511.013V203.088C511.013 204.576 511.901 205.368 513.317 205.368C514.517 205.368 515.501 204.816 516.101 203.784C516.101 206.088 514.661 207.36 512.501 207.36ZM526.634 207V205.272V200.088C526.634 198.168 525.506 196.992 523.658 196.992C522.05 196.992 521.066 197.712 520.466 199.176V205.2V207H518.45V205.272V192V189.48H520.466V196.968C521.186 195.744 522.434 195.024 524.21 195.024C526.994 195.024 528.674 196.8 528.674 199.44V205.272V207H526.634ZM537.574 207.36C533.998 207.36 531.526 205.176 531.526 201.24C531.526 197.616 533.566 195.024 537.166 195.024C540.718 195.024 542.71 197.256 542.686 201.36H533.662C533.758 204.144 535.726 205.344 538.342 205.344C540.094 205.344 541.774 204.648 542.494 203.352C542.494 205.848 540.67 207.36 537.574 207.36ZM533.686 199.848H540.526C540.526 198.168 539.398 196.56 537.142 196.56C535.126 196.56 533.854 197.856 533.686 199.848ZM545.398 207V205.272V197.904V195.384H547.414V196.776C548.182 195.672 549.382 195.024 550.894 195.024C552.67 195.024 553.966 195.768 554.662 197.04C555.358 195.984 556.63 195.024 558.55 195.024C561.358 195.024 563.038 196.8 563.038 199.44V205.344V207H561.022V205.272V200.04C561.022 198.168 559.942 196.992 558.166 196.992C556.678 196.992 555.79 197.784 555.238 199.104V199.44V205.344V207H553.198V205.272V200.04C553.198 198.168 552.118 196.992 550.366 196.992C548.974 196.992 548.11 197.688 547.414 198.96V205.2V207H545.398ZM572.955 207V205.272V197.904V195.384H574.971V205.2V207H572.955ZM572.475 191.496C572.475 190.656 573.123 190.008 573.987 190.008C574.827 190.008 575.451 190.656 575.451 191.496C575.451 192.336 574.827 192.96 573.987 192.96C573.123 192.96 572.475 192.336 572.475 191.496ZM587.206 207V205.272V200.088C587.206 198.168 586.078 196.992 584.23 196.992C582.622 196.992 581.638 197.712 581.038 199.176V205.2V207H579.022V205.272V197.904V195.384H581.038V196.968C581.758 195.744 583.006 195.024 584.782 195.024C587.566 195.024 589.246 196.8 589.246 199.44V205.272V207H587.206ZM603.205 207.36C600.925 207.36 599.677 205.968 599.677 203.712V197.256H597.181L601.717 192.384V195.384H606.613V197.256H601.717V203.088C601.717 204.576 602.605 205.368 604.021 205.368C605.221 205.368 606.205 204.816 606.805 203.784C606.805 206.088 605.365 207.36 603.205 207.36ZM617.338 207V205.272V200.088C617.338 198.168 616.21 196.992 614.362 196.992C612.754 196.992 611.77 197.712 611.17 199.176V205.2V207H609.154V205.272V192V189.48H611.17V196.968C611.89 195.744 613.138 195.024 614.914 195.024C617.698 195.024 619.378 196.8 619.378 199.44V205.272V207H617.338ZM628.278 207.36C624.702 207.36 622.23 205.176 622.23 201.24C622.23 197.616 624.27 195.024 627.87 195.024C631.422 195.024 633.414 197.256 633.39 201.36H624.366C624.462 204.144 626.43 205.344 629.046 205.344C630.798 205.344 632.478 204.648 633.198 203.352C633.198 205.848 631.374 207.36 628.278 207.36ZM624.39 199.848H631.23C631.23 198.168 630.102 196.56 627.846 196.56C625.83 196.56 624.558 197.856 624.39 199.848ZM650.541 207V205.272V200.088C650.541 198.168 649.413 196.992 647.565 196.992C645.957 196.992 644.973 197.712 644.373 199.176V205.2V207H642.357V205.272V197.904V195.384H644.373V196.968C645.093 195.744 646.341 195.024 648.117 195.024C650.901 195.024 652.581 196.8 652.581 199.44V205.272V207H650.541ZM661.481 207.36C657.905 207.36 655.433 205.176 655.433 201.24C655.433 197.616 657.473 195.024 661.073 195.024C664.625 195.024 666.617 197.256 666.593 201.36H657.569C657.665 204.144 659.633 205.344 662.249 205.344C664.001 205.344 665.681 204.648 666.401 203.352C666.401 205.848 664.577 207.36 661.481 207.36ZM657.593 199.848H664.433C664.433 198.168 663.305 196.56 661.049 196.56C659.033 196.56 657.761 197.856 657.593 199.848ZM673.548 207.36C671.268 207.36 670.02 205.968 670.02 203.712V197.256H667.524L672.06 192.384V195.384H676.956V197.256H672.06V203.088C672.06 204.576 672.948 205.368 674.364 205.368C675.564 205.368 676.548 204.816 677.148 203.784C677.148 206.088 675.708 207.36 673.548 207.36ZM680.145 195.384C680.553 196.608 680.553 196.608 680.865 197.64L683.169 204.624L686.433 195.384H688.425L691.641 204.552L693.921 197.712L694.665 195.384H696.873C696.465 196.536 696.465 196.536 696.033 197.712L692.697 207H690.681L687.417 198L684.153 207H682.137L678.801 197.784C678.345 196.512 678.345 196.512 677.961 195.384H680.145ZM704.294 207.36C700.766 207.36 698.174 204.792 698.174 201.168C698.174 197.544 700.766 195.024 704.294 195.024C707.798 195.024 710.39 197.544 710.39 201.168C710.39 204.792 707.798 207.36 704.294 207.36ZM700.31 201.168C700.31 203.688 701.942 205.44 704.294 205.44C706.622 205.44 708.278 203.688 708.278 201.168C708.278 198.672 706.646 196.944 704.294 196.944C701.894 196.944 700.31 198.672 700.31 201.168ZM713.476 207V205.272V197.616V195.384H715.348V197.592C715.876 196.056 717.1 195.144 718.732 195.144C719.164 195.144 719.62 195.192 719.812 195.312V197.232C719.5 197.16 719.02 197.112 718.54 197.112C717.1 197.112 715.924 197.928 715.492 199.536V205.248V207H713.476ZM729.76 207L723.856 200.952V205.2V207H721.84V205.272V192V189.48H723.856V200.664L727.024 197.616C728.32 196.392 728.344 196.392 729.4 195.384H732.088L729.688 197.616L726.4 200.688L731.032 205.416L732.544 207H729.76Z" fill="#4D6BFF"/>
<path d="M435 320L455.503 309.372L436.048 296.93L435 320ZM446.383 305.913L491.685 235.078L488.315 232.922L443.013 303.758L446.383 305.913Z" fill="#4D6BFF"/>
<path d="M315.398 544V542.104V529V527.2H320.942C325.646 527.2 329.486 530.176 329.486 535.6C329.486 541.024 325.646 544 320.942 544H315.398ZM317.51 542.104H320.894C324.206 542.104 327.278 539.968 327.278 535.6C327.278 531.232 324.206 529.096 320.894 529.096H317.51V542.104ZM333.254 544V542.104V529V527.2H335.366V529.096V542.2V544H333.254ZM340.189 544V542.104V529V527.2H345.733C350.437 527.2 354.277 530.176 354.277 535.6C354.277 541.024 350.437 544 345.733 544H340.189ZM342.301 542.104H345.685C348.997 542.104 352.069 539.968 352.069 535.6C352.069 531.232 348.997 529.096 345.685 529.096H342.301V542.104ZM364.113 544V542.104V529V527.2H369.873C373.257 527.2 375.321 528.976 375.321 531.856C375.321 534.328 373.785 535.984 371.217 536.416L375.657 541.864C376.545 542.92 376.545 542.92 377.409 544H374.769L368.745 536.512H366.225V542.152V544H364.113ZM366.225 534.688H369.657C371.961 534.688 373.137 533.656 373.137 531.856C373.137 530.08 371.961 529.048 369.657 529.048H366.225V534.688ZM384.376 544.36C380.8 544.36 378.328 542.176 378.328 538.24C378.328 534.616 380.368 532.024 383.968 532.024C387.52 532.024 389.512 534.256 389.488 538.36H380.464C380.56 541.144 382.528 542.344 385.144 542.344C386.896 542.344 388.576 541.648 389.296 540.352C389.296 542.848 387.472 544.36 384.376 544.36ZM380.488 536.848H387.328C387.328 535.168 386.2 533.56 383.944 533.56C381.928 533.56 380.656 534.856 380.488 536.848ZM396.534 548.68C393.654 548.68 391.398 547.552 391.398 545.68C391.398 544.48 392.19 543.592 393.63 543.016C393.078 542.656 392.646 542.056 392.646 541.312C392.646 540.52 393.15 539.896 393.846 539.56C392.622 538.864 391.854 537.64 391.854 536.104C391.854 533.68 393.678 532.024 396.318 532.024C397.038 532.024 397.71 532.144 398.286 532.384H402.198L402.174 534.256H400.374C400.638 534.808 400.782 535.432 400.782 536.104C400.782 538.504 398.934 540.136 396.294 540.136C395.91 540.136 395.55 540.112 395.19 540.04C394.83 540.16 394.59 540.4 394.59 540.736C394.59 541.24 394.95 541.48 395.862 541.648L399.102 542.128C401.094 542.416 402.318 543.304 402.318 544.96C402.318 547.192 400.062 548.68 396.534 548.68ZM393.438 545.248C393.438 546.472 394.998 547.12 396.894 547.12C398.934 547.12 400.326 546.448 400.326 545.272C400.326 544.432 399.702 544.12 398.526 543.952L395.19 543.472C394.35 543.76 393.438 544.384 393.438 545.248ZM393.798 536.104C393.798 537.592 394.83 538.576 396.294 538.576C397.782 538.576 398.838 537.568 398.838 536.104C398.838 534.592 397.782 533.608 396.294 533.608C394.83 533.608 393.798 534.592 393.798 536.104ZM404.924 544V542.272V534.904V532.384H406.94V542.2V544H404.924ZM404.444 528.496C404.444 527.656 405.092 527.008 405.956 527.008C406.796 527.008 407.42 527.656 407.42 528.496C407.42 529.336 406.796 529.96 405.956 529.96C405.092 529.96 404.444 529.336 404.444 528.496ZM413.97 544.36C412.29 544.36 410.922 543.808 409.938 542.752V540.4C410.85 541.768 412.458 542.584 414.018 542.584C415.29 542.584 415.962 542.008 415.962 541.048C415.962 540.208 415.578 539.776 414.69 539.392L412.53 538.48C410.97 537.808 410.178 536.824 410.178 535.312C410.178 533.416 411.834 532.024 414.138 532.024C415.458 532.024 416.658 532.408 417.546 533.152V535.336C416.85 534.424 415.458 533.752 414.186 533.752C413.034 533.752 412.29 534.328 412.29 535.168C412.29 535.96 412.746 536.416 413.658 536.776L415.89 537.736C417.306 538.336 418.074 539.344 418.074 540.88C418.074 542.968 416.37 544.36 413.97 544.36ZM425.076 544.36C422.796 544.36 421.548 542.968 421.548 540.712V534.256H419.052L423.588 529.384V532.384H428.484V534.256H423.588V540.088C423.588 541.576 424.476 542.368 425.892 542.368C427.092 542.368 428.076 541.816 428.676 540.784C428.676 543.088 427.236 544.36 425.076 544.36ZM431.025 544V542.272V534.616V532.384H432.897V534.592C433.425 533.056 434.649 532.144 436.281 532.144C436.713 532.144 437.169 532.192 437.361 532.312V534.232C437.049 534.16 436.569 534.112 436.089 534.112C434.649 534.112 433.473 534.928 433.041 536.536V542.248V544H431.025ZM440.093 548.32C440.429 547.576 440.717 547.024 441.077 546.256L442.853 542.632L439.037 534.352C438.581 533.32 438.581 533.32 438.149 532.384H440.429C440.909 533.44 440.909 533.44 441.341 534.424L444.029 540.28L446.597 534.52C447.149 533.248 447.149 533.248 447.509 532.384H449.765L448.805 534.472L442.445 548.32H440.093Z" fill="#4D6BFF"/>
<path fill-rule="evenodd" clip-rule="evenodd" d="M163.156 53.9202C174.619 50.6045 183 40.031 183 27.5C183 12.3122 170.688 0 155.5 0C140.312 0 128 12.3122 128 27.5C128 39.6258 135.848 49.9186 146.742 53.576C137.231 55.0956 128.37 59.5762 121.473 66.4731C113.556 74.3899 108.823 84.8954 108.098 96C108.033 96.9957 108 97.9961 108 99H111C111 87.5957 115.53 76.6585 123.594 68.5944C131.658 60.5303 142.596 56 154 56C165.404 56 176.342 60.5303 184.406 68.5944C192.47 76.6585 197 87.5957 197 99H200C200 97.9961 199.967 96.9957 199.902 96C199.177 84.8954 194.444 74.3899 186.527 66.4731C180.091 60.0372 171.944 55.7054 163.156 53.9202ZM180 27.5C180 41.031 169.031 52 155.5 52C141.969 52 131 41.031 131 27.5C131 13.969 141.969 3 155.5 3C169.031 3 180 13.969 180 27.5Z" fill="#4D6BFF"/>
<path fill-rule="evenodd" clip-rule="evenodd" d="M629.156 53.9202C640.619 50.6045 649 40.031 649 27.5C649 12.3122 636.688 0 621.5 0C606.312 0 594 12.3122 594 27.5C594 39.6258 601.848 49.9186 612.742 53.576C603.231 55.0956 594.37 59.5762 587.473 66.4731C579.556 74.3899 574.823 84.8954 574.098 96C574.033 96.9957 574 97.9961 574 99H577C577 87.5957 581.53 76.6585 589.594 68.5944C597.658 60.5303 608.596 56 620 56C631.404 56 642.342 60.5303 650.406 68.5944C658.47 76.6585 663 87.5957 663 99H666C666 97.9961 665.967 96.9957 665.902 96C665.177 84.8954 660.444 74.3899 652.527 66.4731C646.091 60.0372 637.944 55.7054 629.156 53.9202ZM646 27.5C646 41.031 635.031 52 621.5 52C607.969 52 597 41.031 597 27.5C597 13.969 607.969 3 621.5 3C635.031 3 646 13.969 646 27.5Z" fill="#4D6BFF"/>
<path fill-rule="evenodd" clip-rule="evenodd" d="M331.301 371C331.301 369.1 331.405 367.224 331.608 365.378C331.076 365.222 330.54 365.069 330 364.921L331.137 361.449C331.473 361.541 331.808 361.635 332.142 361.731C336.502 337.99 357.306 320 382.312 320C410.485 320 433.324 342.833 433.324 371C433.324 372.918 433.218 374.811 433.011 376.673L433.047 376.675C433.186 376.681 433.253 376.676 433.263 376.675C433.265 376.675 433.265 376.674 433.263 376.675C433.255 376.676 433.201 376.684 433.117 376.711C433.088 376.721 433.049 376.734 433.002 376.754C432.945 377.269 432.879 377.782 432.806 378.292L435.978 377.892C436.095 378.661 435.734 379.356 435.137 379.781C434.671 380.113 434.161 380.216 433.869 380.257C433.44 380.317 432.963 380.311 432.483 380.27C428.122 404.011 407.319 422 382.312 422C354.14 422 331.301 399.167 331.301 371ZM415.528 404.555C408.944 411.071 400.451 415.663 390.962 417.419C390.945 417.131 390.909 416.837 390.863 416.551C390.65 415.23 390.124 413.415 389.29 411.274C388.202 408.475 386.552 405.023 384.27 401.23C389.524 398.305 394.815 394.593 399.856 390.178L415.528 404.555ZM399.867 385.064L385.127 371.543L396.071 361.347C400.09 364.816 404.196 367.748 408.143 370.189C409.165 370.82 410.176 371.42 411.174 371.987C408.137 376.379 404.349 380.814 399.867 385.064ZM402.66 387.625C407.359 383.175 411.357 378.499 414.575 373.832C418.925 376.077 422.887 377.689 426.072 378.739C427.033 379.056 427.933 379.325 428.761 379.546C427.224 387.95 423.461 395.577 418.105 401.794L402.66 387.625ZM416.604 370.723C420.726 372.844 424.452 374.356 427.404 375.329C428.077 375.551 428.703 375.743 429.28 375.907C429.447 374.294 429.532 372.657 429.532 371C429.532 362.908 427.496 355.291 423.907 348.634C424.054 355.044 421.488 362.795 416.604 370.723ZM417.663 341.231L398.841 358.766C402.668 362.062 406.58 364.854 410.349 367.184C411.311 367.78 412.264 368.345 413.203 368.879C415.437 365.245 417.139 361.679 418.276 358.315C420.876 350.629 420.325 344.801 417.663 341.231ZM414.841 338.698L396.024 356.229C392.034 352.474 388.202 348.142 384.801 343.183C388.748 341.082 392.627 339.472 396.292 338.386C404.583 335.927 410.912 336.341 414.841 338.698ZM410.971 333.477C403.307 332.116 393.163 334.536 382.777 340.072C379.865 335.346 377.351 330.097 375.436 324.287C377.681 323.96 379.977 323.79 382.312 323.79C393.09 323.79 403.024 327.4 410.971 333.477ZM379.411 341.971C376.314 336.966 373.642 331.396 371.617 325.22L374.44 324.444C364.373 326.133 355.387 331.006 348.552 337.993L364.751 352.852C369.476 348.58 374.443 344.929 379.411 341.971ZM361.992 355.446L346.02 340.795C340.847 347.002 337.236 354.556 335.793 362.854C341.143 364.619 346.041 366.764 350.511 369.171C353.59 364.545 357.443 359.893 361.992 355.446ZM353.871 371.075C356.777 366.706 360.434 362.274 364.785 358.009L379.563 371.564L368.442 381.925C364.262 378.089 359.425 374.384 353.871 371.075ZM348.536 372.313C344.495 370.135 340.09 368.182 335.299 366.549C335.162 368.014 335.092 369.499 335.092 371C335.092 380.035 337.631 388.476 342.033 395.652C341.155 389.11 343.487 380.844 348.536 372.313ZM348.149 400.83C345.446 397.266 344.874 391.415 347.488 383.685C348.511 380.662 349.989 377.476 351.898 374.225C357.139 377.364 361.71 380.873 365.669 384.508L348.149 400.83ZM353.208 408.178C361.228 414.463 371.332 418.21 382.312 418.21C384.489 418.21 386.632 418.062 388.731 417.777L388.884 416.763C388.232 416.681 387.628 416.952 387.284 417.358C387.151 417.515 387.087 417.654 387.059 417.728C387.029 417.805 387.02 417.855 387.019 417.862C387.02 417.852 387.026 417.791 387.02 417.664C387.013 417.521 386.994 417.329 386.954 417.084C386.794 416.085 386.356 414.516 385.569 412.495C384.557 409.893 383.004 406.636 380.84 403.031C373.794 406.507 366.933 408.515 360.963 408.846L387.019 417.862C387.019 417.863 387.019 417.863 387.019 417.862L360.963 408.846C358.156 409.001 355.547 408.786 353.208 408.178ZM378.855 399.896C375.637 401.477 372.483 402.722 369.473 403.614C361.23 406.059 354.927 405.664 350.992 403.343L368.397 387.128C371.635 390.379 374.405 393.685 376.745 396.877C377.493 397.898 378.196 398.906 378.855 399.896ZM382.288 398.096C381.581 397.032 380.827 395.949 380.025 394.854C377.554 391.481 374.617 387.983 371.174 384.542L382.355 374.125L397.063 387.617C392.246 391.827 387.227 395.34 382.288 398.096ZM367.543 355.413C372.053 351.337 376.764 347.876 381.438 345.082C385.02 350.308 389.055 354.866 393.253 358.81L382.335 368.982L367.543 355.413Z" fill="#4D6BFF"/>
<rect x="194.5" y="442.494" width="50.0057" height="50.0057" rx="3.5" stroke="#4D6BFF" stroke-width="3"/>
<rect x="275.773" y="442.494" width="50.0057" height="50.0057" rx="3.5" stroke="#4D6BFF" stroke-width="3"/>
<rect x="357.051" y="442.494" width="50.0057" height="50.0057" rx="3.5" stroke="#4D6BFF" stroke-width="3"/>
<rect x="438.324" y="442.494" width="50.0057" height="50.0057" rx="3.5" stroke="#4D6BFF" stroke-width="3"/>
<rect x="519.602" y="442.494" width="50.0057" height="50.0057" rx="3.5" stroke="#4D6BFF" stroke-width="3"/>
<line x1="246.004" y1="469.531" x2="274.274" y2="469.531" stroke="#4D6BFF" stroke-width="3"/>
<line x1="327.281" y1="469.531" x2="355.551" y2="469.531" stroke="#4D6BFF" stroke-width="3"/>
<line x1="408.555" y1="469.531" x2="436.824" y2="469.531" stroke="#4D6BFF" stroke-width="3"/>
<line x1="489.832" y1="469.531" x2="518.102" y2="469.531" stroke="#4D6BFF" stroke-width="3"/>
</svg>
