<?xml version="1.0" encoding="UTF-8"?><svg id="Layer_1" xmlns="http://www.w3.org/2000/svg" viewBox="0 0 283.46 98.5"><defs><style>.cls-1{fill:#4d6bff;stroke-width:0px;}</style></defs><path class="cls-1" d="m72.81,74.73c-4.35.27-8.1-3.04-8.37-7.39-.11-1.72.35-3.33,1.2-4.69l-16-11.63,6.06,18.65c.48-.12.98-.21,1.5-.24,4.35-.27,8.1,3.04,8.37,7.39.27,4.35-3.04,8.1-7.39,8.37s-8.1-3.04-8.37-7.39c-.21-3.45,1.82-6.51,4.84-7.77l-6.1-18.78-6.1,18.78c2.68,1.12,4.65,3.69,4.84,6.79.27,4.35-3.04,8.1-7.39,8.37-4.35.27-8.1-3.04-8.37-7.39-.27-4.35,3.04-8.1,7.39-8.37.86-.05,1.69.04,2.48.24l6.12-18.85-16.12,11.69c.71,1.1,1.17,2.39,1.26,3.8.27,4.35-3.04,8.1-7.39,8.37-4.35.27-8.1-3.04-8.37-7.39-.27-4.35,3.04-8.1,7.39-8.37,2.55-.16,4.88.92,6.44,2.7l16.03-11.62h-19.86c-.25,3.9-3.37,7.11-7.38,7.36-4.35.27-8.1-3.04-8.37-7.39-.27-4.35,3.04-8.1,7.39-8.37,4.32-.27,8.03,2.99,8.36,7.29h19.84l-15.91-11.57c-1.34,1.56-3.28,2.6-5.5,2.74-4.35.27-8.1-3.04-8.37-7.39s3.04-8.1,7.39-8.37,8.1,3.04,8.37,7.39c.11,1.74-.36,3.37-1.23,4.73l16.06,11.67-6.12-18.85c-.45.11-.91.19-1.38.22-4.33.27-8.06-3.04-8.33-7.39-.27-4.35,3.02-8.1,7.36-8.37,4.33-.27,8.06,3.04,8.33,7.39.22,3.48-1.86,6.58-4.92,7.81l6.09,18.73,6.14-18.89c-2.7-1.12-4.68-3.69-4.87-6.8-.27-4.35,3.04-8.1,7.39-8.37,4.35-.27,8.1,3.04,8.37,7.39.27,4.35-3.04,8.1-7.39,8.37-.84.05-1.66-.03-2.44-.23l-6.11,18.8,15.92-11.55c-.67-1.08-1.09-2.33-1.18-3.69-.27-4.35,3.04-8.1,7.39-8.37,4.35-.27,8.1,3.04,8.37,7.39.27,4.35-3.04,8.1-7.39,8.37-2.6.16-4.97-.96-6.53-2.81l-16.82,12.2,16.9,12.28c1.34-1.58,3.3-2.64,5.53-2.78,4.35-.27,8.1,3.04,8.37,7.39s-3.04,8.1-7.39,8.37Z"/><path class="cls-1" d="m264.26,67.16c2.06,0,3.6-1.63,3.6-3.65s-1.54-3.65-3.6-3.65-3.65,1.58-3.65,3.65,1.63,3.65,3.65,3.65m-14.63-.72h7.82q-1.54-2.3-1.54-3.7v-31.77l-6.43,1.34c1.63,1.58,1.63,2.64,1.63,4.08v26.44c0,1.49,0,1.54-1.49,3.6m-10.03-30.95c0,1.87,1.39,3.22,3.31,3.22s3.26-1.34,3.26-3.22-1.39-3.26-3.26-3.26-3.31,1.44-3.31,3.26m-.67,30.95h7.82q-1.49-2.3-1.49-3.7v-20.01l-6.48,1.39c1.68,1.54,1.68,2.59,1.68,4.08v14.64c0,1.49,0,1.54-1.54,3.6m-21.79-7.44v-9.12c1.1-2.5,3.45-3.74,6.24-3.74,4.89,0,7.77,3.79,7.77,9.21,0,5.71-3.17,8.83-7.05,8.83-3.6,0-6-2.02-6.96-5.18m-4.8-22.6v30.38l4.13-2.59c1.78,1.78,4.46,2.98,7.77,2.98,7.34,0,12-5.52,12-12.67s-4.7-12.14-10.94-12.14c-3.55,0-6.57,1.68-8.16,4.37v-15.74l-6.43,1.34c1.63,1.58,1.63,2.64,1.63,4.08m-11.23-.91c0,1.87,1.39,3.22,3.31,3.22s3.26-1.34,3.26-3.22-1.39-3.26-3.26-3.26-3.31,1.44-3.31,3.26m-.67,30.95h7.82q-1.49-2.3-1.49-3.7v-20.01l-6.48,1.39c1.68,1.54,1.68,2.59,1.68,4.08v14.64c0,1.49,0,1.54-1.54,3.6m-23.42-12.24c0-5.76,3.22-8.83,7.1-8.83,3.41,0,5.81,1.87,6.81,4.85v9.6c-1.15,2.35-3.41,3.55-6.14,3.55-4.89,0-7.77-3.74-7.77-9.17m13.92-17.8v8.25c-1.73-1.39-4.18-2.3-7.01-2.3-7.29,0-11.95,5.52-11.95,12.72s4.65,12.09,10.89,12.09c3.5,0,6.43-1.58,8.06-4.18v3.79l6.48-.96c-1.68-1.73-1.68-2.16-1.68-3.46v-31.38l-6.72,1.34c1.92,1.58,1.92,2.64,1.92,4.08m-39.69,15.26c.29-4.32,2.59-7.01,6.48-7.01,4.08,0,6.29,3.07,6.33,7.01h-12.81Zm7.34,15.5c6.14,0,9.6-3.22,10.03-7.58-1.58,2.3-4.46,3.41-7.97,3.41-5.42,0-9.45-3.17-9.45-9.07h17.8c.05-6.96-4.03-11.56-11.13-11.56s-11.52,5.61-11.52,12.52c0,7.73,5.04,12.28,12.24,12.28m-28.12-.72h8.3q-1.97-2.21-1.97-3.6v-12.24c1.1-2.59,3.31-3.65,5.76-3.65,1.01,0,1.78.05,2.54.29v-4.27c-.48-.19-1.25-.38-2.16-.38-3.17,0-5.13,1.97-6.53,5.61v-5.47l-6.09,1.39c1.68,1.49,1.68,2.21,1.68,3.65v15.07c0,1.49,0,1.54-1.54,3.6m-15.02.72c7.58,0,12.14-3.7,12.81-10.32-2.06,3.79-6.05,5.85-10.75,5.85-7.92,0-13.34-5.57-13.34-14.3,0-7.97,4.56-12.86,11.95-12.86,4.94,0,8.73,2.16,11.56,6.62v-6.48c-2.69-2.3-6.43-3.55-11.23-3.55-10.46,0-17.37,7.1-17.37,17.95,0,10.08,6.57,17.08,16.36,17.08"/><path class="cls-1" d="m260.61,30.85v.96h1.56v3.97h1.03v-3.97h1.56v-.96h-4.14Zm9.67,0l-1.65,2.39-1.65-2.39h-.9v4.93h.97v-3.22l1.58,2.36,1.57-2.36v3.22h.97v-4.93h-.89Z"/></svg>